<?xml version="1.0" encoding="utf-8" standalone="no"?>
<!DOCTYPE svg PUBLIC "-//W3C//DTD SVG 1.1//EN"
  "http://www.w3.org/Graphics/SVG/1.1/DTD/svg11.dtd">
<svg xmlns:xlink="http://www.w3.org/1999/xlink" width="720pt" height="432pt" viewBox="0 0 720 432" xmlns="http://www.w3.org/2000/svg" version="1.1">
 <metadata>
  <rdf:RDF xmlns:dc="http://purl.org/dc/elements/1.1/" xmlns:cc="http://creativecommons.org/ns#" xmlns:rdf="http://www.w3.org/1999/02/22-rdf-syntax-ns#">
   <cc:Work>
    <dc:type rdf:resource="http://purl.org/dc/dcmitype/StillImage"/>
    <dc:date>2024-08-01T15:34:41.433137</dc:date>
    <dc:format>image/svg+xml</dc:format>
    <dc:creator>
     <cc:Agent>
      <dc:title>Matplotlib v3.7.5, https://matplotlib.org/</dc:title>
     </cc:Agent>
    </dc:creator>
   </cc:Work>
  </rdf:RDF>
 </metadata>
 <defs>
  <style type="text/css">*{stroke-linejoin: round; stroke-linecap: butt}</style>
 </defs>
 <g id="figure_1">
  <g id="patch_1">
   <path d="M 0 432 
L 720 432 
L 720 0 
L 0 0 
z
" style="fill: #ffffff"/>
  </g>
  <g id="axes_1">
   <g id="patch_2">
    <path d="M 64.125 372.75 
L 702.72 372.75 
L 702.72 20.125073 
L 64.125 20.125073 
z
" style="fill: #ffffff"/>
   </g>
   <g id="PolyCollection_1">
    <defs>
     <path id="mcff33e0013" d="M 93.152045 -395.632328 
L 93.152045 -395.632328 
L 96.05475 -144.201571 
L 98.957455 -142.787894 
L 101.860159 -142.15757 
L 104.762864 -142.347568 
L 107.665568 -141.428383 
L 110.568273 -141.66347 
L 113.470977 -141.027347 
L 116.373682 -141.403007 
L 119.276386 -141.827288 
L 122.179091 -140.141486 
L 125.081795 -140.249735 
L 127.9845 -139.743994 
L 130.887205 -139.389826 
L 133.789909 -138.986711 
L 136.692614 -138.149843 
L 139.595318 -138.359431 
L 142.498023 -138.016307 
L 145.400727 -137.650465 
L 148.303432 -137.235269 
L 151.206136 -136.768514 
L 154.108841 -136.634359 
L 157.011545 -136.865357 
L 159.91425 -136.489681 
L 162.816955 -136.582754 
L 165.719659 -136.316755 
L 168.622364 -134.506068 
L 171.525068 -134.772084 
L 174.427773 -135.362206 
L 177.330477 -134.61294 
L 180.233182 -133.805229 
L 183.135886 -133.873187 
L 186.038591 -133.320282 
L 188.941295 -133.295478 
L 191.844 -132.73338 
L 194.746705 -133.153231 
L 197.649409 -132.410673 
L 200.552114 -132.387972 
L 203.454818 -132.002781 
L 206.357523 -130.939076 
L 209.260227 -131.241431 
L 212.162932 -131.143461 
L 215.065636 -131.061765 
L 217.968341 -130.429252 
L 220.871045 -129.743958 
L 223.77375 -131.244179 
L 226.676455 -129.621393 
L 229.579159 -128.944932 
L 232.481864 -128.109664 
L 235.384568 -128.227965 
L 238.287273 -128.6447 
L 241.189977 -127.115442 
L 244.092682 -127.198632 
L 246.995386 -126.298818 
L 249.898091 -126.490105 
L 252.800795 -126.36504 
L 255.7035 -125.43105 
L 258.606205 -125.490688 
L 261.508909 -125.672314 
L 264.411614 -125.53205 
L 267.314318 -126.913232 
L 270.217023 -123.648566 
L 273.119727 -125.420172 
L 276.022432 -123.48096 
L 278.925136 -123.375376 
L 281.827841 -122.761052 
L 284.730545 -123.408931 
L 287.63325 -124.54953 
L 290.535955 -123.051835 
L 293.438659 -122.678044 
L 296.341364 -124.093213 
L 299.244068 -123.549254 
L 302.146773 -126.32754 
L 305.049477 -123.512848 
L 307.952182 -121.844808 
L 310.854886 -122.844549 
L 313.757591 -120.76082 
L 316.660295 -125.236202 
L 319.563 -119.514582 
L 322.465705 -121.399358 
L 325.368409 -125.259352 
L 328.271114 -121.853337 
L 331.173818 -120.799132 
L 334.076523 -120.951155 
L 336.979227 -122.241136 
L 339.881932 -121.799949 
L 342.784636 -120.283841 
L 345.687341 -119.297895 
L 348.590045 -121.649835 
L 351.49275 -119.279504 
L 354.395455 -121.284932 
L 357.298159 -119.298355 
L 360.200864 -118.152686 
L 363.103568 -117.653491 
L 366.006273 -123.780119 
L 368.908977 -116.660986 
L 371.811682 -120.468605 
L 374.714386 -116.157957 
L 377.617091 -117.790758 
L 380.519795 -116.875775 
L 383.4225 -115.940749 
L 386.325205 -117.879291 
L 389.227909 -116.580479 
L 392.130614 -117.410175 
L 395.033318 -116.12759 
L 397.936023 -114.609804 
L 400.838727 -115.78046 
L 403.741432 -114.88965 
L 406.644136 -115.964941 
L 409.546841 -114.034359 
L 412.449545 -113.191086 
L 415.35225 -113.255839 
L 418.254955 -112.286542 
L 421.157659 -114.843397 
L 424.060364 -110.941767 
L 426.963068 -113.178893 
L 429.865773 -113.34237 
L 432.768477 -112.187796 
L 435.671182 -113.44894 
L 438.573886 -112.59687 
L 441.476591 -112.977892 
L 444.379295 -111.367145 
L 447.282 -109.497426 
L 450.184705 -111.443312 
L 453.087409 -110.485122 
L 455.990114 -113.012016 
L 458.892818 -111.433173 
L 461.795523 -110.958461 
L 464.698227 -110.840439 
L 467.600932 -112.057439 
L 470.503636 -112.19818 
L 473.406341 -110.312147 
L 476.309045 -112.83166 
L 479.21175 -111.621135 
L 482.114455 -110.465825 
L 485.017159 -108.052519 
L 487.919864 -109.645674 
L 490.822568 -111.608708 
L 493.725273 -109.873314 
L 496.627977 -109.567101 
L 499.530682 -108.666897 
L 502.433386 -106.96564 
L 505.336091 -109.692747 
L 508.238795 -108.439569 
L 511.1415 -110.013019 
L 514.044205 -110.224009 
L 516.946909 -108.957159 
L 519.849614 -109.577989 
L 522.752318 -107.450808 
L 525.655023 -106.885538 
L 528.557727 -109.976319 
L 531.460432 -105.8844 
L 534.363136 -110.979892 
L 537.265841 -106.945583 
L 540.168545 -106.439 
L 543.07125 -106.936572 
L 545.973955 -106.671095 
L 548.876659 -104.80927 
L 551.779364 -106.517916 
L 554.682068 -104.742563 
L 557.584773 -107.791251 
L 560.487477 -105.813137 
L 563.390182 -105.235916 
L 566.292886 -104.406532 
L 569.195591 -104.107678 
L 572.098295 -106.277364 
L 575.001 -106.18461 
L 577.903705 -106.36472 
L 580.806409 -106.903548 
L 583.709114 -104.625589 
L 586.611818 -106.217557 
L 589.514523 -107.972426 
L 592.417227 -105.527554 
L 595.319932 -106.629876 
L 598.222636 -106.024203 
L 601.125341 -109.023026 
L 604.028045 -109.626599 
L 606.93075 -106.76257 
L 609.833455 -106.165671 
L 612.736159 -104.465348 
L 615.638864 -103.491668 
L 618.541568 -104.980795 
L 621.444273 -104.823514 
L 624.346977 -104.922661 
L 627.249682 -104.181891 
L 630.152386 -104.577019 
L 633.055091 -104.150239 
L 635.957795 -107.586539 
L 638.8605 -103.627863 
L 641.763205 -104.393394 
L 644.665909 -105.951268 
L 647.568614 -105.242838 
L 650.471318 -104.420051 
L 653.374023 -102.179919 
L 656.276727 -104.693569 
L 659.179432 -106.075656 
L 662.082136 -104.506663 
L 664.984841 -101.966163 
L 667.887545 -102.944357 
L 670.79025 -103.340411 
L 673.692955 -101.505493 
L 673.692955 -112.009141 
L 673.692955 -112.009141 
L 670.79025 -107.325912 
L 667.887545 -107.603384 
L 664.984841 -113.110419 
L 662.082136 -114.023906 
L 659.179432 -117.015256 
L 656.276727 -126.411115 
L 653.374023 -113.243665 
L 650.471318 -114.161353 
L 647.568614 -111.880011 
L 644.665909 -109.419834 
L 641.763205 -114.509121 
L 638.8605 -110.747343 
L 635.957795 -114.230595 
L 633.055091 -110.192593 
L 630.152386 -110.092761 
L 627.249682 -113.141022 
L 624.346977 -115.121726 
L 621.444273 -112.284368 
L 618.541568 -119.129551 
L 615.638864 -114.380247 
L 612.736159 -115.652212 
L 609.833455 -127.599152 
L 606.93075 -118.901295 
L 604.028045 -121.681896 
L 601.125341 -119.168934 
L 598.222636 -117.899589 
L 595.319932 -118.685436 
L 592.417227 -115.814591 
L 589.514523 -118.144877 
L 586.611818 -114.238934 
L 583.709114 -110.128798 
L 580.806409 -116.897152 
L 577.903705 -118.436909 
L 575.001 -112.687275 
L 572.098295 -114.461783 
L 569.195591 -109.047919 
L 566.292886 -115.261324 
L 563.390182 -112.166395 
L 560.487477 -111.029539 
L 557.584773 -116.935202 
L 554.682068 -114.549836 
L 551.779364 -121.273403 
L 548.876659 -113.922378 
L 545.973955 -116.198582 
L 543.07125 -120.660565 
L 540.168545 -114.954118 
L 537.265841 -115.649188 
L 534.363136 -119.506184 
L 531.460432 -115.283958 
L 528.557727 -115.799247 
L 525.655023 -111.404956 
L 522.752318 -115.315089 
L 519.849614 -118.962251 
L 516.946909 -119.765072 
L 514.044205 -121.131916 
L 511.1415 -119.105 
L 508.238795 -115.128439 
L 505.336091 -117.200002 
L 502.433386 -117.255235 
L 499.530682 -121.53174 
L 496.627977 -119.855048 
L 493.725273 -112.842579 
L 490.822568 -119.398536 
L 487.919864 -116.485663 
L 485.017159 -118.284177 
L 482.114455 -117.948582 
L 479.21175 -121.850269 
L 476.309045 -127.904638 
L 473.406341 -117.116466 
L 470.503636 -122.816316 
L 467.600932 -120.497147 
L 464.698227 -124.236121 
L 461.795523 -122.486637 
L 458.892818 -120.626611 
L 455.990114 -119.902289 
L 453.087409 -120.926625 
L 450.184705 -117.385341 
L 447.282 -117.943753 
L 444.379295 -122.892456 
L 441.476591 -121.954895 
L 438.573886 -123.499502 
L 435.671182 -124.174008 
L 432.768477 -117.189915 
L 429.865773 -124.018524 
L 426.963068 -119.474577 
L 424.060364 -118.330839 
L 421.157659 -119.35369 
L 418.254955 -117.578455 
L 415.35225 -119.916995 
L 412.449545 -118.221454 
L 409.546841 -124.126009 
L 406.644136 -122.725699 
L 403.741432 -122.463666 
L 400.838727 -126.268557 
L 397.936023 -125.947214 
L 395.033318 -122.468343 
L 392.130614 -129.141555 
L 389.227909 -122.994583 
L 386.325205 -129.630693 
L 383.4225 -129.217707 
L 380.519795 -131.548193 
L 377.617091 -124.02095 
L 374.714386 -121.568445 
L 371.811682 -131.103884 
L 368.908977 -122.065733 
L 366.006273 -129.491647 
L 363.103568 -120.956996 
L 360.200864 -121.346677 
L 357.298159 -125.790859 
L 354.395455 -128.286698 
L 351.49275 -125.747787 
L 348.590045 -127.362084 
L 345.687341 -124.979613 
L 342.784636 -135.531569 
L 339.881932 -127.135137 
L 336.979227 -132.025608 
L 334.076523 -133.470703 
L 331.173818 -131.561094 
L 328.271114 -124.99761 
L 325.368409 -139.718637 
L 322.465705 -127.257313 
L 319.563 -128.70328 
L 316.660295 -141.071738 
L 313.757591 -130.504451 
L 310.854886 -130.979643 
L 307.952182 -135.159271 
L 305.049477 -131.318446 
L 302.146773 -135.594819 
L 299.244068 -132.02456 
L 296.341364 -128.634243 
L 293.438659 -128.896221 
L 290.535955 -128.069789 
L 287.63325 -128.834679 
L 284.730545 -126.457752 
L 281.827841 -124.944501 
L 278.925136 -125.749213 
L 276.022432 -126.766958 
L 273.119727 -131.720711 
L 270.217023 -127.103624 
L 267.314318 -134.846961 
L 264.411614 -133.081937 
L 261.508909 -132.016167 
L 258.606205 -129.214855 
L 255.7035 -130.940985 
L 252.800795 -129.871437 
L 249.898091 -131.666506 
L 246.995386 -131.541902 
L 244.092682 -133.998601 
L 241.189977 -133.751453 
L 238.287273 -132.335129 
L 235.384568 -134.313958 
L 232.481864 -130.016597 
L 229.579159 -135.504954 
L 226.676455 -133.304507 
L 223.77375 -134.920215 
L 220.871045 -132.181842 
L 217.968341 -132.62673 
L 215.065636 -132.127601 
L 212.162932 -133.365139 
L 209.260227 -133.874436 
L 206.357523 -133.683393 
L 203.454818 -134.313136 
L 200.552114 -138.242156 
L 197.649409 -136.020118 
L 194.746705 -136.068066 
L 191.844 -134.36087 
L 188.941295 -134.616799 
L 186.038591 -134.720834 
L 183.135886 -134.820475 
L 180.233182 -134.732167 
L 177.330477 -135.494209 
L 174.427773 -137.418698 
L 171.525068 -138.696753 
L 168.622364 -138.22821 
L 165.719659 -138.182023 
L 162.816955 -138.751498 
L 159.91425 -138.073158 
L 157.011545 -140.164304 
L 154.108841 -139.717515 
L 151.206136 -140.217736 
L 148.303432 -138.118115 
L 145.400727 -138.892835 
L 142.498023 -140.469636 
L 139.595318 -139.062084 
L 136.692614 -139.114647 
L 133.789909 -140.665326 
L 130.887205 -141.623794 
L 127.9845 -140.971836 
L 125.081795 -140.874654 
L 122.179091 -140.855303 
L 119.276386 -142.969585 
L 116.373682 -142.275898 
L 113.470977 -142.30885 
L 110.568273 -143.377759 
L 107.665568 -144.060439 
L 104.762864 -145.385399 
L 101.860159 -144.200452 
L 98.957455 -144.583887 
L 96.05475 -145.469599 
L 93.152045 -395.632328 
z
" style="stroke: #ff8c00; stroke-opacity: 0.5"/>
    </defs>
    <g clip-path="url(#pc2c2bc1345)">
     <use xlink:href="#mcff33e0013" x="0" y="432" style="fill: #ff8c00; fill-opacity: 0.5; stroke: #ff8c00; stroke-opacity: 0.5"/>
    </g>
   </g>
   <g id="PolyCollection_2">
    <defs>
     <path id="me201d99974" d="M 93.152045 -395.699667 
L 93.152045 -395.699667 
L 96.05475 -392.335453 
L 98.957455 -389.045034 
L 101.860159 -385.825702 
L 104.762864 -382.640874 
L 107.665568 -379.517727 
L 110.568273 -376.457296 
L 113.470977 -373.426131 
L 116.373682 -370.444585 
L 119.276386 -367.520125 
L 122.179091 -364.619119 
L 125.081795 -361.758859 
L 127.9845 -358.948334 
L 130.887205 -356.157448 
L 133.789909 -353.399093 
L 136.692614 -350.685734 
L 139.595318 -347.98855 
L 142.498023 -345.315588 
L 145.400727 -342.683925 
L 148.303432 -340.066854 
L 151.206136 -337.467375 
L 154.108841 -334.905829 
L 157.011545 -332.359213 
L 159.91425 -329.822683 
L 162.816955 -327.322716 
L 165.719659 -324.83633 
L 168.622364 -322.351855 
L 171.525068 -319.904408 
L 174.427773 -317.467734 
L 177.330477 -315.02708 
L 180.233182 -312.620089 
L 183.135886 -310.224006 
L 186.038591 -307.8205 
L 188.941295 -305.447886 
L 191.844 -303.087005 
L 194.746705 -300.71529 
L 197.649409 -298.371727 
L 200.552114 -296.039106 
L 203.454818 -293.693439 
L 206.357523 -291.37442 
L 209.260227 -289.064792 
L 212.162932 -286.741603 
L 215.065636 -284.440364 
L 217.968341 -282.147761 
L 220.871045 -279.840666 
L 223.77375 -277.551938 
L 226.676455 -275.274627 
L 229.579159 -272.981546 
L 232.481864 -270.703188 
L 235.384568 -268.439998 
L 238.287273 -266.15872 
L 241.189977 -263.8908 
L 244.092682 -261.637202 
L 246.995386 -259.369726 
L 249.898091 -257.110207 
L 252.800795 -254.86949 
L 255.7035 -252.614561 
L 258.606205 -250.366749 
L 261.508909 -248.143084 
L 264.411614 -245.904018 
L 267.314318 -243.675042 
L 270.217023 -241.472213 
L 273.119727 -239.255245 
L 276.022432 -237.048285 
L 278.925136 -234.871184 
L 281.827841 -232.683834 
L 284.730545 -230.504274 
L 287.63325 -228.360161 
L 290.535955 -226.208392 
L 293.438659 -224.064649 
L 296.341364 -221.961831 
L 299.244068 -219.853934 
L 302.146773 -217.75549 
L 305.049477 -215.70374 
L 307.952182 -213.650167 
L 310.854886 -211.608379 
L 313.757591 -209.617817 
L 316.660295 -207.628899 
L 319.563 -205.653303 
L 322.465705 -203.736099 
L 325.368409 -201.822137 
L 328.271114 -199.926382 
L 331.173818 -198.093309 
L 334.076523 -196.266089 
L 336.979227 -194.462223 
L 339.881932 -192.724067 
L 342.784636 -190.993901 
L 345.687341 -189.292194 
L 348.590045 -187.658077 
L 351.49275 -186.032267 
L 354.395455 -184.442177 
L 357.298159 -182.91974 
L 360.200864 -181.405283 
L 363.103568 -179.933386 
L 366.006273 -178.526143 
L 368.908977 -177.129382 
L 371.811682 -175.77648 
L 374.714386 -174.490939 
L 377.617091 -173.213104 
L 380.519795 -171.984487 
L 383.4225 -170.819687 
L 386.325205 -169.662249 
L 389.227909 -168.554242 
L 392.130614 -167.509355 
L 395.033318 -166.468873 
L 397.936023 -165.478742 
L 400.838727 -164.549732 
L 403.741432 -163.622713 
L 406.644136 -162.745517 
L 409.546841 -161.9256 
L 412.449545 -161.107011 
L 415.35225 -160.334205 
L 418.254955 -159.616565 
L 421.157659 -158.898912 
L 424.060364 -158.222783 
L 426.963068 -157.600539 
L 429.865773 -156.97576 
L 432.768477 -156.388686 
L 435.671182 -155.851519 
L 438.573886 -155.313 
L 441.476591 -154.805438 
L 444.379295 -154.345967 
L 447.282 -153.882731 
L 450.184705 -153.446443 
L 453.087409 -153.056304 
L 455.990114 -152.661114 
L 458.892818 -152.289036 
L 461.795523 -151.958907 
L 464.698227 -151.624363 
L 467.600932 -151.309344 
L 470.503636 -151.031781 
L 473.406341 -150.750526 
L 476.309045 -150.482931 
L 479.21175 -150.252068 
L 482.114455 -150.016767 
L 485.017159 -149.792517 
L 487.919864 -149.601612 
L 490.822568 -149.40625 
L 493.725273 -149.219095 
L 496.627977 -149.062211 
L 499.530682 -148.901309 
L 502.433386 -148.746006 
L 505.336091 -148.618188 
L 508.238795 -148.486638 
L 511.1415 -148.358845 
L 514.044205 -148.255626 
L 516.946909 -148.14927 
L 519.849614 -148.045135 
L 522.752318 -147.962735 
L 525.655023 -147.876981 
L 528.557727 -147.79389 
L 531.460432 -147.728327 
L 534.363136 -147.660441 
L 537.265841 -147.595234 
L 540.168545 -147.543687 
L 543.07125 -147.49071 
L 545.973955 -147.440495 
L 548.876659 -147.400768 
L 551.779364 -147.359922 
L 554.682068 -147.322358 
L 557.584773 -147.292438 
L 560.487477 -147.262099 
L 563.390182 -147.23506 
L 566.292886 -147.213178 
L 569.195591 -147.191372 
L 572.098295 -147.173002 
L 575.001 -147.157986 
L 577.903705 -147.143032 
L 580.806409 -147.131716 
L 583.709114 -147.122259 
L 586.611818 -147.112951 
L 589.514523 -147.10736 
L 592.417227 -147.102589 
L 595.319932 -147.09795 
L 598.222636 -147.096721 
L 601.125341 -147.095903 
L 604.028045 -147.094747 
L 606.93075 -147.096988 
L 609.833455 -147.099463 
L 612.736159 -147.101179 
L 615.638864 -147.106074 
L 618.541568 -147.111213 
L 621.444273 -147.114959 
L 624.346977 -147.121668 
L 627.249682 -147.129081 
L 630.152386 -147.134657 
L 633.055091 -147.142562 
L 635.957795 -147.15192 
L 638.8605 -147.158522 
L 641.763205 -147.16739 
L 644.665909 -147.178496 
L 647.568614 -147.185725 
L 650.471318 -147.19485 
L 653.374023 -147.207488 
L 656.276727 -147.215131 
L 659.179432 -147.224123 
L 662.082136 -147.237592 
L 664.984841 -147.245845 
L 667.887545 -147.25413 
L 670.79025 -147.269152 
L 673.692955 -147.276652 
L 673.692955 -147.276652 
L 673.692955 -147.276652 
L 670.79025 -147.269152 
L 667.887545 -147.25413 
L 664.984841 -147.245845 
L 662.082136 -147.237592 
L 659.179432 -147.224123 
L 656.276727 -147.215131 
L 653.374023 -147.207488 
L 650.471318 -147.19485 
L 647.568614 -147.185725 
L 644.665909 -147.178496 
L 641.763205 -147.16739 
L 638.8605 -147.158522 
L 635.957795 -147.15192 
L 633.055091 -147.142562 
L 630.152386 -147.134657 
L 627.249682 -147.129081 
L 624.346977 -147.121668 
L 621.444273 -147.114959 
L 618.541568 -147.111213 
L 615.638864 -147.106074 
L 612.736159 -147.101179 
L 609.833455 -147.099463 
L 606.93075 -147.096988 
L 604.028045 -147.094747 
L 601.125341 -147.095903 
L 598.222636 -147.096721 
L 595.319932 -147.09795 
L 592.417227 -147.102589 
L 589.514523 -147.10736 
L 586.611818 -147.112951 
L 583.709114 -147.122259 
L 580.806409 -147.131716 
L 577.903705 -147.143032 
L 575.001 -147.157986 
L 572.098295 -147.173002 
L 569.195591 -147.191372 
L 566.292886 -147.213178 
L 563.390182 -147.23506 
L 560.487477 -147.262099 
L 557.584773 -147.292438 
L 554.682068 -147.322358 
L 551.779364 -147.359922 
L 548.876659 -147.400768 
L 545.973955 -147.440495 
L 543.07125 -147.49071 
L 540.168545 -147.543687 
L 537.265841 -147.595234 
L 534.363136 -147.660441 
L 531.460432 -147.728327 
L 528.557727 -147.79389 
L 525.655023 -147.876981 
L 522.752318 -147.962735 
L 519.849614 -148.045135 
L 516.946909 -148.14927 
L 514.044205 -148.255626 
L 511.1415 -148.358845 
L 508.238795 -148.486638 
L 505.336091 -148.618188 
L 502.433386 -148.746006 
L 499.530682 -148.901309 
L 496.627977 -149.062211 
L 493.725273 -149.219095 
L 490.822568 -149.40625 
L 487.919864 -149.601612 
L 485.017159 -149.792517 
L 482.114455 -150.016767 
L 479.21175 -150.252068 
L 476.309045 -150.482931 
L 473.406341 -150.750526 
L 470.503636 -151.031781 
L 467.600932 -151.309344 
L 464.698227 -151.624363 
L 461.795523 -151.958907 
L 458.892818 -152.289036 
L 455.990114 -152.661114 
L 453.087409 -153.056304 
L 450.184705 -153.446443 
L 447.282 -153.882731 
L 444.379295 -154.345967 
L 441.476591 -154.805438 
L 438.573886 -155.313 
L 435.671182 -155.851519 
L 432.768477 -156.388686 
L 429.865773 -156.97576 
L 426.963068 -157.600539 
L 424.060364 -158.222783 
L 421.157659 -158.898912 
L 418.254955 -159.616565 
L 415.35225 -160.334205 
L 412.449545 -161.107011 
L 409.546841 -161.9256 
L 406.644136 -162.745517 
L 403.741432 -163.622713 
L 400.838727 -164.549732 
L 397.936023 -165.478742 
L 395.033318 -166.468873 
L 392.130614 -167.509355 
L 389.227909 -168.554242 
L 386.325205 -169.662249 
L 383.4225 -170.819687 
L 380.519795 -171.984487 
L 377.617091 -173.213104 
L 374.714386 -174.490939 
L 371.811682 -175.77648 
L 368.908977 -177.129382 
L 366.006273 -178.526143 
L 363.103568 -179.933386 
L 360.200864 -181.405283 
L 357.298159 -182.91974 
L 354.395455 -184.442177 
L 351.49275 -186.032267 
L 348.590045 -187.658077 
L 345.687341 -189.292194 
L 342.784636 -190.993901 
L 339.881932 -192.724067 
L 336.979227 -194.462223 
L 334.076523 -196.266089 
L 331.173818 -198.093309 
L 328.271114 -199.926382 
L 325.368409 -201.822137 
L 322.465705 -203.736099 
L 319.563 -205.653303 
L 316.660295 -207.628899 
L 313.757591 -209.617817 
L 310.854886 -211.608379 
L 307.952182 -213.650167 
L 305.049477 -215.70374 
L 302.146773 -217.75549 
L 299.244068 -219.853934 
L 296.341364 -221.961831 
L 293.438659 -224.064649 
L 290.535955 -226.208392 
L 287.63325 -228.360161 
L 284.730545 -230.504274 
L 281.827841 -232.683834 
L 278.925136 -234.871184 
L 276.022432 -237.048285 
L 273.119727 -239.255245 
L 270.217023 -241.472213 
L 267.314318 -243.675042 
L 264.411614 -245.904018 
L 261.508909 -248.143084 
L 258.606205 -250.366749 
L 255.7035 -252.614561 
L 252.800795 -254.86949 
L 249.898091 -257.110207 
L 246.995386 -259.369726 
L 244.092682 -261.637202 
L 241.189977 -263.8908 
L 238.287273 -266.15872 
L 235.384568 -268.439998 
L 232.481864 -270.703188 
L 229.579159 -272.981546 
L 226.676455 -275.274627 
L 223.77375 -277.551938 
L 220.871045 -279.840666 
L 217.968341 -282.147761 
L 215.065636 -284.440364 
L 212.162932 -286.741603 
L 209.260227 -289.064792 
L 206.357523 -291.37442 
L 203.454818 -293.693439 
L 200.552114 -296.039106 
L 197.649409 -298.371727 
L 194.746705 -300.71529 
L 191.844 -303.087005 
L 188.941295 -305.447886 
L 186.038591 -307.8205 
L 183.135886 -310.224006 
L 180.233182 -312.620089 
L 177.330477 -315.02708 
L 174.427773 -317.467734 
L 171.525068 -319.904408 
L 168.622364 -322.351855 
L 165.719659 -324.83633 
L 162.816955 -327.322716 
L 159.91425 -329.822683 
L 157.011545 -332.359213 
L 154.108841 -334.905829 
L 151.206136 -337.467375 
L 148.303432 -340.066854 
L 145.400727 -342.683925 
L 142.498023 -345.315588 
L 139.595318 -347.98855 
L 136.692614 -350.685734 
L 133.789909 -353.399093 
L 130.887205 -356.157448 
L 127.9845 -358.948334 
L 125.081795 -361.758859 
L 122.179091 -364.619119 
L 119.276386 -367.520125 
L 116.373682 -370.444585 
L 113.470977 -373.426131 
L 110.568273 -376.457296 
L 107.665568 -379.517727 
L 104.762864 -382.640874 
L 101.860159 -385.825702 
L 98.957455 -389.045034 
L 96.05475 -392.335453 
L 93.152045 -395.699667 
z
" style="stroke: #32cd32; stroke-opacity: 0.5"/>
    </defs>
    <g clip-path="url(#pc2c2bc1345)">
     <use xlink:href="#me201d99974" x="0" y="432" style="fill: #32cd32; fill-opacity: 0.5; stroke: #32cd32; stroke-opacity: 0.5"/>
    </g>
   </g>
   <g id="PolyCollection_3">
    <defs>
     <path id="mf1ef81f308" d="M 93.152045 -395.846522 
L 93.152045 -395.846522 
L 96.05475 -143.428207 
L 98.957455 -141.546436 
L 101.860159 -134.110529 
L 104.762864 -141.666309 
L 107.665568 -147.577719 
L 110.568273 -132.63325 
L 113.470977 -137.512456 
L 116.373682 -138.371656 
L 119.276386 -125.13824 
L 122.179091 -136.833029 
L 125.081795 -131.239871 
L 127.9845 -121.403946 
L 130.887205 -128.810789 
L 133.789909 -131.850658 
L 136.692614 -116.774985 
L 139.595318 -129.041101 
L 142.498023 -131.154091 
L 145.400727 -113.070222 
L 148.303432 -122.043722 
L 151.206136 -123.378264 
L 154.108841 -111.867147 
L 157.011545 -122.40552 
L 159.91425 -113.210337 
L 162.816955 -108.824775 
L 165.719659 -119.436691 
L 168.622364 -112.283934 
L 171.525068 -106.174262 
L 174.427773 -141.175907 
L 177.330477 -132.616453 
L 180.233182 -122.13762 
L 183.135886 -150.45819 
L 186.038591 -118.616706 
L 188.941295 -104.354344 
L 191.844 -126.096093 
L 194.746705 -115.908212 
L 197.649409 -101.93868 
L 200.552114 -101.986311 
L 203.454818 -105.122394 
L 206.357523 -117.979393 
L 209.260227 -142.317468 
L 212.162932 -109.206588 
L 215.065636 -99.505019 
L 217.968341 -117.095295 
L 220.871045 -115.216195 
L 223.77375 -114.078868 
L 226.676455 -111.165146 
L 229.579159 -119.45925 
L 232.481864 -125.307625 
L 235.384568 -112.166262 
L 238.287273 -141.934636 
L 241.189977 -107.814675 
L 244.092682 -100.919953 
L 246.995386 -108.615503 
L 249.898091 -121.40616 
L 252.800795 -102.58263 
L 255.7035 -99.00649 
L 258.606205 -107.633556 
L 261.508909 -116.275149 
L 264.411614 -130.300849 
L 267.314318 -122.9385 
L 270.217023 -93.615092 
L 273.119727 -115.650517 
L 276.022432 -133.805261 
L 278.925136 -101.472963 
L 281.827841 -138.853314 
L 284.730545 -116.659527 
L 287.63325 -97.239168 
L 290.535955 -102.900369 
L 293.438659 -117.560905 
L 296.341364 -97.557007 
L 299.244068 -102.353662 
L 302.146773 -108.952167 
L 305.049477 -105.279696 
L 307.952182 -103.533881 
L 310.854886 -96.422818 
L 313.757591 -98.569609 
L 316.660295 -110.786076 
L 319.563 -94.10159 
L 322.465705 -93.24391 
L 325.368409 -114.0446 
L 328.271114 -99.600327 
L 331.173818 -92.756466 
L 334.076523 -95.754785 
L 336.979227 -94.075893 
L 339.881932 -88.111482 
L 342.784636 -125.083728 
L 345.687341 -115.390751 
L 348.590045 -92.804786 
L 351.49275 -98.847661 
L 354.395455 -103.896501 
L 357.298159 -90.916023 
L 360.200864 -99.653731 
L 363.103568 -101.36409 
L 366.006273 -89.535276 
L 368.908977 -96.230291 
L 371.811682 -97.438628 
L 374.714386 -109.164202 
L 377.617091 -96.0673 
L 380.519795 -95.271395 
L 383.4225 -125.18001 
L 386.325205 -96.360534 
L 389.227909 -95.986993 
L 392.130614 -99.335997 
L 395.033318 -86.629733 
L 397.936023 -95.768162 
L 400.838727 -94.437083 
L 403.741432 -100.39384 
L 406.644136 -110.869699 
L 409.546841 -117.748431 
L 412.449545 -84.119561 
L 415.35225 -100.752872 
L 418.254955 -112.02515 
L 421.157659 -87.07615 
L 424.060364 -90.486901 
L 426.963068 -95.884691 
L 429.865773 -85.477468 
L 432.768477 -107.265676 
L 435.671182 -95.831672 
L 438.573886 -88.024752 
L 441.476591 -113.01585 
L 444.379295 -87.634441 
L 447.282 -85.942996 
L 450.184705 -114.416785 
L 453.087409 -90.000614 
L 455.990114 -82.422138 
L 458.892818 -109.663806 
L 461.795523 -101.249286 
L 464.698227 -86.259918 
L 467.600932 -96.255143 
L 470.503636 -93.099632 
L 473.406341 -97.283922 
L 476.309045 -94.173279 
L 479.21175 -86.683265 
L 482.114455 -89.193972 
L 485.017159 -96.716644 
L 487.919864 -85.585248 
L 490.822568 -87.324826 
L 493.725273 -95.607603 
L 496.627977 -97.883157 
L 499.530682 -81.574414 
L 502.433386 -83.572928 
L 505.336091 -105.263262 
L 508.238795 -102.019194 
L 511.1415 -83.346367 
L 514.044205 -86.623152 
L 516.946909 -98.345459 
L 519.849614 -107.489796 
L 522.752318 -87.246354 
L 525.655023 -94.072252 
L 528.557727 -83.984229 
L 531.460432 -89.494011 
L 534.363136 -100.140432 
L 537.265841 -88.124094 
L 540.168545 -82.578061 
L 543.07125 -95.960275 
L 545.973955 -83.867359 
L 548.876659 -83.739706 
L 551.779364 -82.229098 
L 554.682068 -87.321894 
L 557.584773 -82.153416 
L 560.487477 -82.599154 
L 563.390182 -77.588415 
L 566.292886 -85.467358 
L 569.195591 -89.040466 
L 572.098295 -78.803368 
L 575.001 -81.455144 
L 577.903705 -97.247722 
L 580.806409 -81.994102 
L 583.709114 -82.887529 
L 586.611818 -87.861865 
L 589.514523 -81.460027 
L 592.417227 -78.836814 
L 595.319932 -90.841371 
L 598.222636 -77.835773 
L 601.125341 -98.3613 
L 604.028045 -83.241137 
L 606.93075 -77.355903 
L 609.833455 -90.678313 
L 612.736159 -82.998452 
L 615.638864 -77.634511 
L 618.541568 -91.438541 
L 621.444273 -87.169289 
L 624.346977 -78.8195 
L 627.249682 -78.90783 
L 630.152386 -91.939712 
L 633.055091 -81.281946 
L 635.957795 -93.49837 
L 638.8605 -77.342606 
L 641.763205 -79.743257 
L 644.665909 -89.463017 
L 647.568614 -85.153156 
L 650.471318 -76.834154 
L 653.374023 -93.433078 
L 656.276727 -78.11317 
L 659.179432 -82.444246 
L 662.082136 -93.37825 
L 664.984841 -83.167634 
L 667.887545 -75.278406 
L 670.79025 -84.810776 
L 673.692955 -85.750966 
L 673.692955 -85.750966 
L 673.692955 -85.750966 
L 670.79025 -84.810776 
L 667.887545 -75.278406 
L 664.984841 -83.167634 
L 662.082136 -93.37825 
L 659.179432 -82.444246 
L 656.276727 -78.11317 
L 653.374023 -93.433078 
L 650.471318 -76.834154 
L 647.568614 -85.153156 
L 644.665909 -89.463017 
L 641.763205 -79.743257 
L 638.8605 -77.342606 
L 635.957795 -93.49837 
L 633.055091 -81.281946 
L 630.152386 -91.939712 
L 627.249682 -78.90783 
L 624.346977 -78.8195 
L 621.444273 -87.169289 
L 618.541568 -91.438541 
L 615.638864 -77.634511 
L 612.736159 -82.998452 
L 609.833455 -90.678313 
L 606.93075 -77.355903 
L 604.028045 -83.241137 
L 601.125341 -98.3613 
L 598.222636 -77.835773 
L 595.319932 -90.841371 
L 592.417227 -78.836814 
L 589.514523 -81.460027 
L 586.611818 -87.861865 
L 583.709114 -82.887529 
L 580.806409 -81.994102 
L 577.903705 -97.247722 
L 575.001 -81.455144 
L 572.098295 -78.803368 
L 569.195591 -89.040466 
L 566.292886 -85.467358 
L 563.390182 -77.588415 
L 560.487477 -82.599154 
L 557.584773 -82.153416 
L 554.682068 -87.321894 
L 551.779364 -82.229098 
L 548.876659 -83.739706 
L 545.973955 -83.867359 
L 543.07125 -95.960275 
L 540.168545 -82.578061 
L 537.265841 -88.124094 
L 534.363136 -100.140432 
L 531.460432 -89.494011 
L 528.557727 -83.984229 
L 525.655023 -94.072252 
L 522.752318 -87.246354 
L 519.849614 -107.489796 
L 516.946909 -98.345459 
L 514.044205 -86.623152 
L 511.1415 -83.346367 
L 508.238795 -102.019194 
L 505.336091 -105.263262 
L 502.433386 -83.572928 
L 499.530682 -81.574414 
L 496.627977 -97.883157 
L 493.725273 -95.607603 
L 490.822568 -87.324826 
L 487.919864 -85.585248 
L 485.017159 -96.716644 
L 482.114455 -89.193972 
L 479.21175 -86.683265 
L 476.309045 -94.173279 
L 473.406341 -97.283922 
L 470.503636 -93.099632 
L 467.600932 -96.255143 
L 464.698227 -86.259918 
L 461.795523 -101.249286 
L 458.892818 -109.663806 
L 455.990114 -82.422138 
L 453.087409 -90.000614 
L 450.184705 -114.416785 
L 447.282 -85.942996 
L 444.379295 -87.634441 
L 441.476591 -113.01585 
L 438.573886 -88.024752 
L 435.671182 -95.831672 
L 432.768477 -107.265676 
L 429.865773 -85.477468 
L 426.963068 -95.884691 
L 424.060364 -90.486901 
L 421.157659 -87.07615 
L 418.254955 -112.02515 
L 415.35225 -100.752872 
L 412.449545 -84.119561 
L 409.546841 -117.748431 
L 406.644136 -110.869699 
L 403.741432 -100.39384 
L 400.838727 -94.437083 
L 397.936023 -95.768162 
L 395.033318 -86.629733 
L 392.130614 -99.335997 
L 389.227909 -95.986993 
L 386.325205 -96.360534 
L 383.4225 -125.18001 
L 380.519795 -95.271395 
L 377.617091 -96.0673 
L 374.714386 -109.164202 
L 371.811682 -97.438628 
L 368.908977 -96.230291 
L 366.006273 -89.535276 
L 363.103568 -101.36409 
L 360.200864 -99.653731 
L 357.298159 -90.916023 
L 354.395455 -103.896501 
L 351.49275 -98.847661 
L 348.590045 -92.804786 
L 345.687341 -115.390751 
L 342.784636 -125.083728 
L 339.881932 -88.111482 
L 336.979227 -94.075893 
L 334.076523 -95.754785 
L 331.173818 -92.756466 
L 328.271114 -99.600327 
L 325.368409 -114.0446 
L 322.465705 -93.24391 
L 319.563 -94.10159 
L 316.660295 -110.786076 
L 313.757591 -98.569609 
L 310.854886 -96.422818 
L 307.952182 -103.533881 
L 305.049477 -105.279696 
L 302.146773 -108.952167 
L 299.244068 -102.353662 
L 296.341364 -97.557007 
L 293.438659 -117.560905 
L 290.535955 -102.900369 
L 287.63325 -97.239168 
L 284.730545 -116.659527 
L 281.827841 -138.853314 
L 278.925136 -101.472963 
L 276.022432 -133.805261 
L 273.119727 -115.650517 
L 270.217023 -93.615092 
L 267.314318 -122.9385 
L 264.411614 -130.300849 
L 261.508909 -116.275149 
L 258.606205 -107.633556 
L 255.7035 -99.00649 
L 252.800795 -102.58263 
L 249.898091 -121.40616 
L 246.995386 -108.615503 
L 244.092682 -100.919953 
L 241.189977 -107.814675 
L 238.287273 -141.934636 
L 235.384568 -112.166262 
L 232.481864 -125.307625 
L 229.579159 -119.45925 
L 226.676455 -111.165146 
L 223.77375 -114.078868 
L 220.871045 -115.216195 
L 217.968341 -117.095295 
L 215.065636 -99.505019 
L 212.162932 -109.206588 
L 209.260227 -142.317468 
L 206.357523 -117.979393 
L 203.454818 -105.122394 
L 200.552114 -101.986311 
L 197.649409 -101.93868 
L 194.746705 -115.908212 
L 191.844 -126.096093 
L 188.941295 -104.354344 
L 186.038591 -118.616706 
L 183.135886 -150.45819 
L 180.233182 -122.13762 
L 177.330477 -132.616453 
L 174.427773 -141.175907 
L 171.525068 -106.174262 
L 168.622364 -112.283934 
L 165.719659 -119.436691 
L 162.816955 -108.824775 
L 159.91425 -113.210337 
L 157.011545 -122.40552 
L 154.108841 -111.867147 
L 151.206136 -123.378264 
L 148.303432 -122.043722 
L 145.400727 -113.070222 
L 142.498023 -131.154091 
L 139.595318 -129.041101 
L 136.692614 -116.774985 
L 133.789909 -131.850658 
L 130.887205 -128.810789 
L 127.9845 -121.403946 
L 125.081795 -131.239871 
L 122.179091 -136.833029 
L 119.276386 -125.13824 
L 116.373682 -138.371656 
L 113.470977 -137.512456 
L 110.568273 -132.63325 
L 107.665568 -147.577719 
L 104.762864 -141.666309 
L 101.860159 -134.110529 
L 98.957455 -141.546436 
L 96.05475 -143.428207 
L 93.152045 -395.846522 
z
" style="stroke: #800080; stroke-opacity: 0.5"/>
    </defs>
    <g clip-path="url(#pc2c2bc1345)">
     <use xlink:href="#mf1ef81f308" x="0" y="432" style="fill: #800080; fill-opacity: 0.5; stroke: #800080; stroke-opacity: 0.5"/>
    </g>
   </g>
   <g id="matplotlib.axis_1">
    <g id="xtick_1">
     <g id="line2d_1">
      <path d="M 93.152045 372.75 
L 93.152045 20.125073 
" clip-path="url(#pc2c2bc1345)" style="fill: none; stroke: #b0b0b0; stroke-width: 0.8; stroke-linecap: square"/>
     </g>
     <g id="line2d_2">
      <defs>
       <path id="m936f32e5e0" d="M 0 0 
L 0 3.5 
" style="stroke: #000000; stroke-width: 0.8"/>
      </defs>
      <g>
       <use xlink:href="#m936f32e5e0" x="93.152045" y="372.75" style="stroke: #000000; stroke-width: 0.8"/>
      </g>
     </g>
     <g id="text_1">
      <!-- 0 -->
      <g transform="translate(88.062045 391.9075) scale(0.16 -0.16)">
       <defs>
        <path id="DejaVuSans-30" d="M 2034 4250 
Q 1547 4250 1301 3770 
Q 1056 3291 1056 2328 
Q 1056 1369 1301 889 
Q 1547 409 2034 409 
Q 2525 409 2770 889 
Q 3016 1369 3016 2328 
Q 3016 3291 2770 3770 
Q 2525 4250 2034 4250 
z
M 2034 4750 
Q 2819 4750 3233 4129 
Q 3647 3509 3647 2328 
Q 3647 1150 3233 529 
Q 2819 -91 2034 -91 
Q 1250 -91 836 529 
Q 422 1150 422 2328 
Q 422 3509 836 4129 
Q 1250 4750 2034 4750 
z
" transform="scale(0.015625)"/>
       </defs>
       <use xlink:href="#DejaVuSans-30"/>
      </g>
     </g>
    </g>
    <g id="xtick_2">
     <g id="line2d_3">
      <path d="M 165.719659 372.75 
L 165.719659 20.125073 
" clip-path="url(#pc2c2bc1345)" style="fill: none; stroke: #b0b0b0; stroke-width: 0.8; stroke-linecap: square"/>
     </g>
     <g id="line2d_4">
      <g>
       <use xlink:href="#m936f32e5e0" x="165.719659" y="372.75" style="stroke: #000000; stroke-width: 0.8"/>
      </g>
     </g>
     <g id="text_2">
      <!-- 500 -->
      <g transform="translate(150.449659 391.9075) scale(0.16 -0.16)">
       <defs>
        <path id="DejaVuSans-35" d="M 691 4666 
L 3169 4666 
L 3169 4134 
L 1269 4134 
L 1269 2991 
Q 1406 3038 1543 3061 
Q 1681 3084 1819 3084 
Q 2600 3084 3056 2656 
Q 3513 2228 3513 1497 
Q 3513 744 3044 326 
Q 2575 -91 1722 -91 
Q 1428 -91 1123 -41 
Q 819 9 494 109 
L 494 744 
Q 775 591 1075 516 
Q 1375 441 1709 441 
Q 2250 441 2565 725 
Q 2881 1009 2881 1497 
Q 2881 1984 2565 2268 
Q 2250 2553 1709 2553 
Q 1456 2553 1204 2497 
Q 953 2441 691 2322 
L 691 4666 
z
" transform="scale(0.015625)"/>
       </defs>
       <use xlink:href="#DejaVuSans-35"/>
       <use xlink:href="#DejaVuSans-30" x="63.623047"/>
       <use xlink:href="#DejaVuSans-30" x="127.246094"/>
      </g>
     </g>
    </g>
    <g id="xtick_3">
     <g id="line2d_5">
      <path d="M 238.287273 372.75 
L 238.287273 20.125073 
" clip-path="url(#pc2c2bc1345)" style="fill: none; stroke: #b0b0b0; stroke-width: 0.8; stroke-linecap: square"/>
     </g>
     <g id="line2d_6">
      <g>
       <use xlink:href="#m936f32e5e0" x="238.287273" y="372.75" style="stroke: #000000; stroke-width: 0.8"/>
      </g>
     </g>
     <g id="text_3">
      <!-- 1000 -->
      <g transform="translate(217.927273 391.9075) scale(0.16 -0.16)">
       <defs>
        <path id="DejaVuSans-31" d="M 794 531 
L 1825 531 
L 1825 4091 
L 703 3866 
L 703 4441 
L 1819 4666 
L 2450 4666 
L 2450 531 
L 3481 531 
L 3481 0 
L 794 0 
L 794 531 
z
" transform="scale(0.015625)"/>
       </defs>
       <use xlink:href="#DejaVuSans-31"/>
       <use xlink:href="#DejaVuSans-30" x="63.623047"/>
       <use xlink:href="#DejaVuSans-30" x="127.246094"/>
       <use xlink:href="#DejaVuSans-30" x="190.869141"/>
      </g>
     </g>
    </g>
    <g id="xtick_4">
     <g id="line2d_7">
      <path d="M 310.854886 372.75 
L 310.854886 20.125073 
" clip-path="url(#pc2c2bc1345)" style="fill: none; stroke: #b0b0b0; stroke-width: 0.8; stroke-linecap: square"/>
     </g>
     <g id="line2d_8">
      <g>
       <use xlink:href="#m936f32e5e0" x="310.854886" y="372.75" style="stroke: #000000; stroke-width: 0.8"/>
      </g>
     </g>
     <g id="text_4">
      <!-- 1500 -->
      <g transform="translate(290.494886 391.9075) scale(0.16 -0.16)">
       <use xlink:href="#DejaVuSans-31"/>
       <use xlink:href="#DejaVuSans-35" x="63.623047"/>
       <use xlink:href="#DejaVuSans-30" x="127.246094"/>
       <use xlink:href="#DejaVuSans-30" x="190.869141"/>
      </g>
     </g>
    </g>
    <g id="xtick_5">
     <g id="line2d_9">
      <path d="M 383.4225 372.75 
L 383.4225 20.125073 
" clip-path="url(#pc2c2bc1345)" style="fill: none; stroke: #b0b0b0; stroke-width: 0.8; stroke-linecap: square"/>
     </g>
     <g id="line2d_10">
      <g>
       <use xlink:href="#m936f32e5e0" x="383.4225" y="372.75" style="stroke: #000000; stroke-width: 0.8"/>
      </g>
     </g>
     <g id="text_5">
      <!-- 2000 -->
      <g transform="translate(363.0625 391.9075) scale(0.16 -0.16)">
       <defs>
        <path id="DejaVuSans-32" d="M 1228 531 
L 3431 531 
L 3431 0 
L 469 0 
L 469 531 
Q 828 903 1448 1529 
Q 2069 2156 2228 2338 
Q 2531 2678 2651 2914 
Q 2772 3150 2772 3378 
Q 2772 3750 2511 3984 
Q 2250 4219 1831 4219 
Q 1534 4219 1204 4116 
Q 875 4013 500 3803 
L 500 4441 
Q 881 4594 1212 4672 
Q 1544 4750 1819 4750 
Q 2544 4750 2975 4387 
Q 3406 4025 3406 3419 
Q 3406 3131 3298 2873 
Q 3191 2616 2906 2266 
Q 2828 2175 2409 1742 
Q 1991 1309 1228 531 
z
" transform="scale(0.015625)"/>
       </defs>
       <use xlink:href="#DejaVuSans-32"/>
       <use xlink:href="#DejaVuSans-30" x="63.623047"/>
       <use xlink:href="#DejaVuSans-30" x="127.246094"/>
       <use xlink:href="#DejaVuSans-30" x="190.869141"/>
      </g>
     </g>
    </g>
    <g id="xtick_6">
     <g id="line2d_11">
      <path d="M 455.990114 372.75 
L 455.990114 20.125073 
" clip-path="url(#pc2c2bc1345)" style="fill: none; stroke: #b0b0b0; stroke-width: 0.8; stroke-linecap: square"/>
     </g>
     <g id="line2d_12">
      <g>
       <use xlink:href="#m936f32e5e0" x="455.990114" y="372.75" style="stroke: #000000; stroke-width: 0.8"/>
      </g>
     </g>
     <g id="text_6">
      <!-- 2500 -->
      <g transform="translate(435.630114 391.9075) scale(0.16 -0.16)">
       <use xlink:href="#DejaVuSans-32"/>
       <use xlink:href="#DejaVuSans-35" x="63.623047"/>
       <use xlink:href="#DejaVuSans-30" x="127.246094"/>
       <use xlink:href="#DejaVuSans-30" x="190.869141"/>
      </g>
     </g>
    </g>
    <g id="xtick_7">
     <g id="line2d_13">
      <path d="M 528.557727 372.75 
L 528.557727 20.125073 
" clip-path="url(#pc2c2bc1345)" style="fill: none; stroke: #b0b0b0; stroke-width: 0.8; stroke-linecap: square"/>
     </g>
     <g id="line2d_14">
      <g>
       <use xlink:href="#m936f32e5e0" x="528.557727" y="372.75" style="stroke: #000000; stroke-width: 0.8"/>
      </g>
     </g>
     <g id="text_7">
      <!-- 3000 -->
      <g transform="translate(508.197727 391.9075) scale(0.16 -0.16)">
       <defs>
        <path id="DejaVuSans-33" d="M 2597 2516 
Q 3050 2419 3304 2112 
Q 3559 1806 3559 1356 
Q 3559 666 3084 287 
Q 2609 -91 1734 -91 
Q 1441 -91 1130 -33 
Q 819 25 488 141 
L 488 750 
Q 750 597 1062 519 
Q 1375 441 1716 441 
Q 2309 441 2620 675 
Q 2931 909 2931 1356 
Q 2931 1769 2642 2001 
Q 2353 2234 1838 2234 
L 1294 2234 
L 1294 2753 
L 1863 2753 
Q 2328 2753 2575 2939 
Q 2822 3125 2822 3475 
Q 2822 3834 2567 4026 
Q 2313 4219 1838 4219 
Q 1578 4219 1281 4162 
Q 984 4106 628 3988 
L 628 4550 
Q 988 4650 1302 4700 
Q 1616 4750 1894 4750 
Q 2613 4750 3031 4423 
Q 3450 4097 3450 3541 
Q 3450 3153 3228 2886 
Q 3006 2619 2597 2516 
z
" transform="scale(0.015625)"/>
       </defs>
       <use xlink:href="#DejaVuSans-33"/>
       <use xlink:href="#DejaVuSans-30" x="63.623047"/>
       <use xlink:href="#DejaVuSans-30" x="127.246094"/>
       <use xlink:href="#DejaVuSans-30" x="190.869141"/>
      </g>
     </g>
    </g>
    <g id="xtick_8">
     <g id="line2d_15">
      <path d="M 601.125341 372.75 
L 601.125341 20.125073 
" clip-path="url(#pc2c2bc1345)" style="fill: none; stroke: #b0b0b0; stroke-width: 0.8; stroke-linecap: square"/>
     </g>
     <g id="line2d_16">
      <g>
       <use xlink:href="#m936f32e5e0" x="601.125341" y="372.75" style="stroke: #000000; stroke-width: 0.8"/>
      </g>
     </g>
     <g id="text_8">
      <!-- 3500 -->
      <g transform="translate(580.765341 391.9075) scale(0.16 -0.16)">
       <use xlink:href="#DejaVuSans-33"/>
       <use xlink:href="#DejaVuSans-35" x="63.623047"/>
       <use xlink:href="#DejaVuSans-30" x="127.246094"/>
       <use xlink:href="#DejaVuSans-30" x="190.869141"/>
      </g>
     </g>
    </g>
    <g id="xtick_9">
     <g id="line2d_17">
      <path d="M 673.692955 372.75 
L 673.692955 20.125073 
" clip-path="url(#pc2c2bc1345)" style="fill: none; stroke: #b0b0b0; stroke-width: 0.8; stroke-linecap: square"/>
     </g>
     <g id="line2d_18">
      <g>
       <use xlink:href="#m936f32e5e0" x="673.692955" y="372.75" style="stroke: #000000; stroke-width: 0.8"/>
      </g>
     </g>
     <g id="text_9">
      <!-- 4000 -->
      <g transform="translate(653.332955 391.9075) scale(0.16 -0.16)">
       <defs>
        <path id="DejaVuSans-34" d="M 2419 4116 
L 825 1625 
L 2419 1625 
L 2419 4116 
z
M 2253 4666 
L 3047 4666 
L 3047 1625 
L 3713 1625 
L 3713 1100 
L 3047 1100 
L 3047 0 
L 2419 0 
L 2419 1100 
L 313 1100 
L 313 1709 
L 2253 4666 
z
" transform="scale(0.015625)"/>
       </defs>
       <use xlink:href="#DejaVuSans-34"/>
       <use xlink:href="#DejaVuSans-30" x="63.623047"/>
       <use xlink:href="#DejaVuSans-30" x="127.246094"/>
       <use xlink:href="#DejaVuSans-30" x="190.869141"/>
      </g>
     </g>
    </g>
    <g id="text_10">
     <!-- Communication Round -->
     <g transform="translate(292.51375 411.3925) scale(0.16 -0.16)">
      <defs>
       <path id="DejaVuSans-43" d="M 4122 4306 
L 4122 3641 
Q 3803 3938 3442 4084 
Q 3081 4231 2675 4231 
Q 1875 4231 1450 3742 
Q 1025 3253 1025 2328 
Q 1025 1406 1450 917 
Q 1875 428 2675 428 
Q 3081 428 3442 575 
Q 3803 722 4122 1019 
L 4122 359 
Q 3791 134 3420 21 
Q 3050 -91 2638 -91 
Q 1578 -91 968 557 
Q 359 1206 359 2328 
Q 359 3453 968 4101 
Q 1578 4750 2638 4750 
Q 3056 4750 3426 4639 
Q 3797 4528 4122 4306 
z
" transform="scale(0.015625)"/>
       <path id="DejaVuSans-6f" d="M 1959 3097 
Q 1497 3097 1228 2736 
Q 959 2375 959 1747 
Q 959 1119 1226 758 
Q 1494 397 1959 397 
Q 2419 397 2687 759 
Q 2956 1122 2956 1747 
Q 2956 2369 2687 2733 
Q 2419 3097 1959 3097 
z
M 1959 3584 
Q 2709 3584 3137 3096 
Q 3566 2609 3566 1747 
Q 3566 888 3137 398 
Q 2709 -91 1959 -91 
Q 1206 -91 779 398 
Q 353 888 353 1747 
Q 353 2609 779 3096 
Q 1206 3584 1959 3584 
z
" transform="scale(0.015625)"/>
       <path id="DejaVuSans-6d" d="M 3328 2828 
Q 3544 3216 3844 3400 
Q 4144 3584 4550 3584 
Q 5097 3584 5394 3201 
Q 5691 2819 5691 2113 
L 5691 0 
L 5113 0 
L 5113 2094 
Q 5113 2597 4934 2840 
Q 4756 3084 4391 3084 
Q 3944 3084 3684 2787 
Q 3425 2491 3425 1978 
L 3425 0 
L 2847 0 
L 2847 2094 
Q 2847 2600 2669 2842 
Q 2491 3084 2119 3084 
Q 1678 3084 1418 2786 
Q 1159 2488 1159 1978 
L 1159 0 
L 581 0 
L 581 3500 
L 1159 3500 
L 1159 2956 
Q 1356 3278 1631 3431 
Q 1906 3584 2284 3584 
Q 2666 3584 2933 3390 
Q 3200 3197 3328 2828 
z
" transform="scale(0.015625)"/>
       <path id="DejaVuSans-75" d="M 544 1381 
L 544 3500 
L 1119 3500 
L 1119 1403 
Q 1119 906 1312 657 
Q 1506 409 1894 409 
Q 2359 409 2629 706 
Q 2900 1003 2900 1516 
L 2900 3500 
L 3475 3500 
L 3475 0 
L 2900 0 
L 2900 538 
Q 2691 219 2414 64 
Q 2138 -91 1772 -91 
Q 1169 -91 856 284 
Q 544 659 544 1381 
z
M 1991 3584 
L 1991 3584 
z
" transform="scale(0.015625)"/>
       <path id="DejaVuSans-6e" d="M 3513 2113 
L 3513 0 
L 2938 0 
L 2938 2094 
Q 2938 2591 2744 2837 
Q 2550 3084 2163 3084 
Q 1697 3084 1428 2787 
Q 1159 2491 1159 1978 
L 1159 0 
L 581 0 
L 581 3500 
L 1159 3500 
L 1159 2956 
Q 1366 3272 1645 3428 
Q 1925 3584 2291 3584 
Q 2894 3584 3203 3211 
Q 3513 2838 3513 2113 
z
" transform="scale(0.015625)"/>
       <path id="DejaVuSans-69" d="M 603 3500 
L 1178 3500 
L 1178 0 
L 603 0 
L 603 3500 
z
M 603 4863 
L 1178 4863 
L 1178 4134 
L 603 4134 
L 603 4863 
z
" transform="scale(0.015625)"/>
       <path id="DejaVuSans-63" d="M 3122 3366 
L 3122 2828 
Q 2878 2963 2633 3030 
Q 2388 3097 2138 3097 
Q 1578 3097 1268 2742 
Q 959 2388 959 1747 
Q 959 1106 1268 751 
Q 1578 397 2138 397 
Q 2388 397 2633 464 
Q 2878 531 3122 666 
L 3122 134 
Q 2881 22 2623 -34 
Q 2366 -91 2075 -91 
Q 1284 -91 818 406 
Q 353 903 353 1747 
Q 353 2603 823 3093 
Q 1294 3584 2113 3584 
Q 2378 3584 2631 3529 
Q 2884 3475 3122 3366 
z
" transform="scale(0.015625)"/>
       <path id="DejaVuSans-61" d="M 2194 1759 
Q 1497 1759 1228 1600 
Q 959 1441 959 1056 
Q 959 750 1161 570 
Q 1363 391 1709 391 
Q 2188 391 2477 730 
Q 2766 1069 2766 1631 
L 2766 1759 
L 2194 1759 
z
M 3341 1997 
L 3341 0 
L 2766 0 
L 2766 531 
Q 2569 213 2275 61 
Q 1981 -91 1556 -91 
Q 1019 -91 701 211 
Q 384 513 384 1019 
Q 384 1609 779 1909 
Q 1175 2209 1959 2209 
L 2766 2209 
L 2766 2266 
Q 2766 2663 2505 2880 
Q 2244 3097 1772 3097 
Q 1472 3097 1187 3025 
Q 903 2953 641 2809 
L 641 3341 
Q 956 3463 1253 3523 
Q 1550 3584 1831 3584 
Q 2591 3584 2966 3190 
Q 3341 2797 3341 1997 
z
" transform="scale(0.015625)"/>
       <path id="DejaVuSans-74" d="M 1172 4494 
L 1172 3500 
L 2356 3500 
L 2356 3053 
L 1172 3053 
L 1172 1153 
Q 1172 725 1289 603 
Q 1406 481 1766 481 
L 2356 481 
L 2356 0 
L 1766 0 
Q 1100 0 847 248 
Q 594 497 594 1153 
L 594 3053 
L 172 3053 
L 172 3500 
L 594 3500 
L 594 4494 
L 1172 4494 
z
" transform="scale(0.015625)"/>
       <path id="DejaVuSans-20" transform="scale(0.015625)"/>
       <path id="DejaVuSans-52" d="M 2841 2188 
Q 3044 2119 3236 1894 
Q 3428 1669 3622 1275 
L 4263 0 
L 3584 0 
L 2988 1197 
Q 2756 1666 2539 1819 
Q 2322 1972 1947 1972 
L 1259 1972 
L 1259 0 
L 628 0 
L 628 4666 
L 2053 4666 
Q 2853 4666 3247 4331 
Q 3641 3997 3641 3322 
Q 3641 2881 3436 2590 
Q 3231 2300 2841 2188 
z
M 1259 4147 
L 1259 2491 
L 2053 2491 
Q 2509 2491 2742 2702 
Q 2975 2913 2975 3322 
Q 2975 3731 2742 3939 
Q 2509 4147 2053 4147 
L 1259 4147 
z
" transform="scale(0.015625)"/>
       <path id="DejaVuSans-64" d="M 2906 2969 
L 2906 4863 
L 3481 4863 
L 3481 0 
L 2906 0 
L 2906 525 
Q 2725 213 2448 61 
Q 2172 -91 1784 -91 
Q 1150 -91 751 415 
Q 353 922 353 1747 
Q 353 2572 751 3078 
Q 1150 3584 1784 3584 
Q 2172 3584 2448 3432 
Q 2725 3281 2906 2969 
z
M 947 1747 
Q 947 1113 1208 752 
Q 1469 391 1925 391 
Q 2381 391 2643 752 
Q 2906 1113 2906 1747 
Q 2906 2381 2643 2742 
Q 2381 3103 1925 3103 
Q 1469 3103 1208 2742 
Q 947 2381 947 1747 
z
" transform="scale(0.015625)"/>
      </defs>
      <use xlink:href="#DejaVuSans-43"/>
      <use xlink:href="#DejaVuSans-6f" x="69.824219"/>
      <use xlink:href="#DejaVuSans-6d" x="131.005859"/>
      <use xlink:href="#DejaVuSans-6d" x="228.417969"/>
      <use xlink:href="#DejaVuSans-75" x="325.830078"/>
      <use xlink:href="#DejaVuSans-6e" x="389.208984"/>
      <use xlink:href="#DejaVuSans-69" x="452.587891"/>
      <use xlink:href="#DejaVuSans-63" x="480.371094"/>
      <use xlink:href="#DejaVuSans-61" x="535.351562"/>
      <use xlink:href="#DejaVuSans-74" x="596.630859"/>
      <use xlink:href="#DejaVuSans-69" x="635.839844"/>
      <use xlink:href="#DejaVuSans-6f" x="663.623047"/>
      <use xlink:href="#DejaVuSans-6e" x="724.804688"/>
      <use xlink:href="#DejaVuSans-20" x="788.183594"/>
      <use xlink:href="#DejaVuSans-52" x="819.970703"/>
      <use xlink:href="#DejaVuSans-6f" x="884.953125"/>
      <use xlink:href="#DejaVuSans-75" x="946.134766"/>
      <use xlink:href="#DejaVuSans-6e" x="1009.513672"/>
      <use xlink:href="#DejaVuSans-64" x="1072.892578"/>
     </g>
    </g>
   </g>
   <g id="matplotlib.axis_2">
    <g id="ytick_1">
     <g id="line2d_19">
      <path d="M 64.125 339.129645 
L 702.72 339.129645 
" clip-path="url(#pc2c2bc1345)" style="fill: none; stroke: #b0b0b0; stroke-width: 0.8; stroke-linecap: square"/>
     </g>
     <g id="line2d_20">
      <defs>
       <path id="m4ae9591d98" d="M 0 0 
L -3.5 0 
" style="stroke: #000000; stroke-width: 0.8"/>
      </defs>
      <g>
       <use xlink:href="#m4ae9591d98" x="64.125" y="339.129645" style="stroke: #000000; stroke-width: 0.8"/>
      </g>
     </g>
     <g id="text_11">
      <!-- 2 -->
      <g transform="translate(46.945 345.208395) scale(0.16 -0.16)">
       <use xlink:href="#DejaVuSans-32"/>
      </g>
     </g>
    </g>
    <g id="ytick_2">
     <g id="line2d_21">
      <path d="M 64.125 299.682568 
L 702.72 299.682568 
" clip-path="url(#pc2c2bc1345)" style="fill: none; stroke: #b0b0b0; stroke-width: 0.8; stroke-linecap: square"/>
     </g>
     <g id="line2d_22">
      <g>
       <use xlink:href="#m4ae9591d98" x="64.125" y="299.682568" style="stroke: #000000; stroke-width: 0.8"/>
      </g>
     </g>
     <g id="text_12">
      <!-- 4 -->
      <g transform="translate(46.945 305.761318) scale(0.16 -0.16)">
       <use xlink:href="#DejaVuSans-34"/>
      </g>
     </g>
    </g>
    <g id="ytick_3">
     <g id="line2d_23">
      <path d="M 64.125 260.235491 
L 702.72 260.235491 
" clip-path="url(#pc2c2bc1345)" style="fill: none; stroke: #b0b0b0; stroke-width: 0.8; stroke-linecap: square"/>
     </g>
     <g id="line2d_24">
      <g>
       <use xlink:href="#m4ae9591d98" x="64.125" y="260.235491" style="stroke: #000000; stroke-width: 0.8"/>
      </g>
     </g>
     <g id="text_13">
      <!-- 6 -->
      <g transform="translate(46.945 266.314241) scale(0.16 -0.16)">
       <defs>
        <path id="DejaVuSans-36" d="M 2113 2584 
Q 1688 2584 1439 2293 
Q 1191 2003 1191 1497 
Q 1191 994 1439 701 
Q 1688 409 2113 409 
Q 2538 409 2786 701 
Q 3034 994 3034 1497 
Q 3034 2003 2786 2293 
Q 2538 2584 2113 2584 
z
M 3366 4563 
L 3366 3988 
Q 3128 4100 2886 4159 
Q 2644 4219 2406 4219 
Q 1781 4219 1451 3797 
Q 1122 3375 1075 2522 
Q 1259 2794 1537 2939 
Q 1816 3084 2150 3084 
Q 2853 3084 3261 2657 
Q 3669 2231 3669 1497 
Q 3669 778 3244 343 
Q 2819 -91 2113 -91 
Q 1303 -91 875 529 
Q 447 1150 447 2328 
Q 447 3434 972 4092 
Q 1497 4750 2381 4750 
Q 2619 4750 2861 4703 
Q 3103 4656 3366 4563 
z
" transform="scale(0.015625)"/>
       </defs>
       <use xlink:href="#DejaVuSans-36"/>
      </g>
     </g>
    </g>
    <g id="ytick_4">
     <g id="line2d_25">
      <path d="M 64.125 220.788414 
L 702.72 220.788414 
" clip-path="url(#pc2c2bc1345)" style="fill: none; stroke: #b0b0b0; stroke-width: 0.8; stroke-linecap: square"/>
     </g>
     <g id="line2d_26">
      <g>
       <use xlink:href="#m4ae9591d98" x="64.125" y="220.788414" style="stroke: #000000; stroke-width: 0.8"/>
      </g>
     </g>
     <g id="text_14">
      <!-- 8 -->
      <g transform="translate(46.945 226.867164) scale(0.16 -0.16)">
       <defs>
        <path id="DejaVuSans-38" d="M 2034 2216 
Q 1584 2216 1326 1975 
Q 1069 1734 1069 1313 
Q 1069 891 1326 650 
Q 1584 409 2034 409 
Q 2484 409 2743 651 
Q 3003 894 3003 1313 
Q 3003 1734 2745 1975 
Q 2488 2216 2034 2216 
z
M 1403 2484 
Q 997 2584 770 2862 
Q 544 3141 544 3541 
Q 544 4100 942 4425 
Q 1341 4750 2034 4750 
Q 2731 4750 3128 4425 
Q 3525 4100 3525 3541 
Q 3525 3141 3298 2862 
Q 3072 2584 2669 2484 
Q 3125 2378 3379 2068 
Q 3634 1759 3634 1313 
Q 3634 634 3220 271 
Q 2806 -91 2034 -91 
Q 1263 -91 848 271 
Q 434 634 434 1313 
Q 434 1759 690 2068 
Q 947 2378 1403 2484 
z
M 1172 3481 
Q 1172 3119 1398 2916 
Q 1625 2713 2034 2713 
Q 2441 2713 2670 2916 
Q 2900 3119 2900 3481 
Q 2900 3844 2670 4047 
Q 2441 4250 2034 4250 
Q 1625 4250 1398 4047 
Q 1172 3844 1172 3481 
z
" transform="scale(0.015625)"/>
       </defs>
       <use xlink:href="#DejaVuSans-38"/>
      </g>
     </g>
    </g>
    <g id="ytick_5">
     <g id="line2d_27">
      <path d="M 64.125 181.341337 
L 702.72 181.341337 
" clip-path="url(#pc2c2bc1345)" style="fill: none; stroke: #b0b0b0; stroke-width: 0.8; stroke-linecap: square"/>
     </g>
     <g id="line2d_28">
      <g>
       <use xlink:href="#m4ae9591d98" x="64.125" y="181.341337" style="stroke: #000000; stroke-width: 0.8"/>
      </g>
     </g>
     <g id="text_15">
      <!-- 10 -->
      <g transform="translate(36.765 187.420087) scale(0.16 -0.16)">
       <use xlink:href="#DejaVuSans-31"/>
       <use xlink:href="#DejaVuSans-30" x="63.623047"/>
      </g>
     </g>
    </g>
    <g id="ytick_6">
     <g id="line2d_29">
      <path d="M 64.125 141.89426 
L 702.72 141.89426 
" clip-path="url(#pc2c2bc1345)" style="fill: none; stroke: #b0b0b0; stroke-width: 0.8; stroke-linecap: square"/>
     </g>
     <g id="line2d_30">
      <g>
       <use xlink:href="#m4ae9591d98" x="64.125" y="141.89426" style="stroke: #000000; stroke-width: 0.8"/>
      </g>
     </g>
     <g id="text_16">
      <!-- 12 -->
      <g transform="translate(36.765 147.97301) scale(0.16 -0.16)">
       <use xlink:href="#DejaVuSans-31"/>
       <use xlink:href="#DejaVuSans-32" x="63.623047"/>
      </g>
     </g>
    </g>
    <g id="ytick_7">
     <g id="line2d_31">
      <path d="M 64.125 102.447183 
L 702.72 102.447183 
" clip-path="url(#pc2c2bc1345)" style="fill: none; stroke: #b0b0b0; stroke-width: 0.8; stroke-linecap: square"/>
     </g>
     <g id="line2d_32">
      <g>
       <use xlink:href="#m4ae9591d98" x="64.125" y="102.447183" style="stroke: #000000; stroke-width: 0.8"/>
      </g>
     </g>
     <g id="text_17">
      <!-- 14 -->
      <g transform="translate(36.765 108.525933) scale(0.16 -0.16)">
       <use xlink:href="#DejaVuSans-31"/>
       <use xlink:href="#DejaVuSans-34" x="63.623047"/>
      </g>
     </g>
    </g>
    <g id="ytick_8">
     <g id="line2d_33">
      <path d="M 64.125 63.000106 
L 702.72 63.000106 
" clip-path="url(#pc2c2bc1345)" style="fill: none; stroke: #b0b0b0; stroke-width: 0.8; stroke-linecap: square"/>
     </g>
     <g id="line2d_34">
      <g>
       <use xlink:href="#m4ae9591d98" x="64.125" y="63.000106" style="stroke: #000000; stroke-width: 0.8"/>
      </g>
     </g>
     <g id="text_18">
      <!-- 16 -->
      <g transform="translate(36.765 69.078856) scale(0.16 -0.16)">
       <use xlink:href="#DejaVuSans-31"/>
       <use xlink:href="#DejaVuSans-36" x="63.623047"/>
      </g>
     </g>
    </g>
    <g id="ytick_9">
     <g id="line2d_35">
      <path d="M 64.125 23.553029 
L 702.72 23.553029 
" clip-path="url(#pc2c2bc1345)" style="fill: none; stroke: #b0b0b0; stroke-width: 0.8; stroke-linecap: square"/>
     </g>
     <g id="line2d_36">
      <g>
       <use xlink:href="#m4ae9591d98" x="64.125" y="23.553029" style="stroke: #000000; stroke-width: 0.8"/>
      </g>
     </g>
     <g id="text_19">
      <!-- 18 -->
      <g transform="translate(36.765 29.631779) scale(0.16 -0.16)">
       <use xlink:href="#DejaVuSans-31"/>
       <use xlink:href="#DejaVuSans-38" x="63.623047"/>
      </g>
     </g>
    </g>
    <g id="text_20">
     <!-- Validation Loss -->
     <g transform="translate(29.4375 256.032536) rotate(-90) scale(0.16 -0.16)">
      <defs>
       <path id="DejaVuSans-56" d="M 1831 0 
L 50 4666 
L 709 4666 
L 2188 738 
L 3669 4666 
L 4325 4666 
L 2547 0 
L 1831 0 
z
" transform="scale(0.015625)"/>
       <path id="DejaVuSans-6c" d="M 603 4863 
L 1178 4863 
L 1178 0 
L 603 0 
L 603 4863 
z
" transform="scale(0.015625)"/>
       <path id="DejaVuSans-4c" d="M 628 4666 
L 1259 4666 
L 1259 531 
L 3531 531 
L 3531 0 
L 628 0 
L 628 4666 
z
" transform="scale(0.015625)"/>
       <path id="DejaVuSans-73" d="M 2834 3397 
L 2834 2853 
Q 2591 2978 2328 3040 
Q 2066 3103 1784 3103 
Q 1356 3103 1142 2972 
Q 928 2841 928 2578 
Q 928 2378 1081 2264 
Q 1234 2150 1697 2047 
L 1894 2003 
Q 2506 1872 2764 1633 
Q 3022 1394 3022 966 
Q 3022 478 2636 193 
Q 2250 -91 1575 -91 
Q 1294 -91 989 -36 
Q 684 19 347 128 
L 347 722 
Q 666 556 975 473 
Q 1284 391 1588 391 
Q 1994 391 2212 530 
Q 2431 669 2431 922 
Q 2431 1156 2273 1281 
Q 2116 1406 1581 1522 
L 1381 1569 
Q 847 1681 609 1914 
Q 372 2147 372 2553 
Q 372 3047 722 3315 
Q 1072 3584 1716 3584 
Q 2034 3584 2315 3537 
Q 2597 3491 2834 3397 
z
" transform="scale(0.015625)"/>
      </defs>
      <use xlink:href="#DejaVuSans-56"/>
      <use xlink:href="#DejaVuSans-61" x="60.658203"/>
      <use xlink:href="#DejaVuSans-6c" x="121.9375"/>
      <use xlink:href="#DejaVuSans-69" x="149.720703"/>
      <use xlink:href="#DejaVuSans-64" x="177.503906"/>
      <use xlink:href="#DejaVuSans-61" x="240.980469"/>
      <use xlink:href="#DejaVuSans-74" x="302.259766"/>
      <use xlink:href="#DejaVuSans-69" x="341.46875"/>
      <use xlink:href="#DejaVuSans-6f" x="369.251953"/>
      <use xlink:href="#DejaVuSans-6e" x="430.433594"/>
      <use xlink:href="#DejaVuSans-20" x="493.8125"/>
      <use xlink:href="#DejaVuSans-4c" x="525.599609"/>
      <use xlink:href="#DejaVuSans-6f" x="579.5625"/>
      <use xlink:href="#DejaVuSans-73" x="640.744141"/>
      <use xlink:href="#DejaVuSans-73" x="692.84375"/>
     </g>
    </g>
   </g>
   <g id="line2d_37">
    <path d="M 93.152045 332.423641 
L 673.692955 332.423641 
L 673.692955 332.423641 
" clip-path="url(#pc2c2bc1345)" style="fill: none; stroke-dasharray: 3,4.95; stroke-dashoffset: 0; stroke: #4b0082; stroke-width: 3"/>
   </g>
   <g id="line2d_38">
    <path d="M 93.152045 36.367672 
L 96.05475 287.24881 
L 98.957455 288.63437 
L 101.860159 288.821371 
L 104.762864 288.831262 
L 107.665568 289.684137 
L 110.568273 289.565872 
L 113.470977 290.19833 
L 116.373682 290.282002 
L 119.276386 289.632409 
L 122.179091 291.409406 
L 125.081795 291.36996 
L 127.9845 291.720188 
L 130.887205 291.810159 
L 133.789909 292.46613 
L 136.692614 293.435526 
L 139.595318 293.275248 
L 142.498023 292.934428 
L 148.303432 294.378368 
L 151.206136 293.566316 
L 154.108841 294.321652 
L 157.011545 293.41705 
L 159.91425 294.732517 
L 165.719659 294.8497 
L 168.622364 295.462647 
L 171.525068 295.553113 
L 174.427773 296.104256 
L 177.330477 297.12938 
L 180.233182 297.870119 
L 183.135886 297.677031 
L 186.038591 298.174948 
L 188.941295 298.154483 
L 191.844 298.406206 
L 194.746705 297.733053 
L 197.649409 298.405289 
L 200.552114 296.756302 
L 203.454818 298.637217 
L 206.357523 299.887618 
L 209.260227 299.19547 
L 212.162932 299.906575 
L 215.065636 300.245536 
L 220.871045 301.299684 
L 223.77375 298.98722 
L 226.676455 300.843498 
L 229.579159 300.509672 
L 232.481864 303.023902 
L 235.384568 301.505232 
L 238.287273 301.232283 
L 241.189977 302.479624 
L 244.092682 301.978125 
L 246.995386 303.666329 
L 249.898091 303.287436 
L 252.800795 303.549488 
L 255.7035 304.289568 
L 258.606205 304.765971 
L 261.508909 304.400691 
L 264.411614 302.890917 
L 267.314318 302.128492 
L 270.217023 306.955571 
L 273.119727 304.286402 
L 276.022432 307.064976 
L 281.827841 307.89928 
L 284.730545 306.993872 
L 287.63325 305.0091 
L 290.535955 307.014432 
L 293.438659 306.075372 
L 296.341364 305.497992 
L 299.244068 305.078432 
L 302.146773 303.653573 
L 305.049477 306.149982 
L 307.952182 304.959196 
L 313.757591 306.688684 
L 316.660295 301.479508 
L 319.563 309.295309 
L 322.465705 308.613623 
L 325.368409 300.40743 
L 328.271114 308.830808 
L 331.173818 306.178309 
L 334.076523 305.135706 
L 336.979227 305.563189 
L 339.881932 307.914472 
L 342.784636 306.689091 
L 345.687341 310.097038 
L 348.590045 307.908602 
L 351.49275 310.250656 
L 354.395455 307.211741 
L 357.298159 310.088233 
L 360.200864 312.64404 
L 363.103568 312.847196 
L 366.006273 306.520545 
L 368.908977 313.195138 
L 371.811682 306.817738 
L 374.714386 313.896582 
L 380.519795 309.014992 
L 383.4225 310.972158 
L 386.325205 309.834523 
L 389.227909 313.213892 
L 392.130614 308.994865 
L 395.033318 313.001044 
L 397.936023 312.456962 
L 400.838727 310.390723 
L 403.741432 313.160165 
L 406.644136 312.399364 
L 409.546841 314.3145 
L 412.449545 316.525693 
L 415.35225 315.97531 
L 418.254955 317.387406 
L 421.157659 315.512106 
L 424.060364 318.251318 
L 426.963068 315.919902 
L 429.865773 313.115987 
L 432.768477 317.402898 
L 435.671182 315.043214 
L 438.573886 315.984611 
L 441.476591 313.713761 
L 444.379295 315.654209 
L 447.282 317.342359 
L 450.184705 318.307955 
L 453.087409 316.966031 
L 455.990114 316.654887 
L 458.892818 317.066994 
L 461.795523 316.565783 
L 464.698227 317.849436 
L 467.600932 316.983275 
L 470.503636 317.559181 
L 473.406341 319.388244 
L 476.309045 314.028172 
L 479.21175 314.416697 
L 482.114455 318.257996 
L 485.017159 316.821166 
L 487.919864 319.537728 
L 490.822568 316.746734 
L 493.725273 320.855388 
L 496.627977 316.263858 
L 499.530682 317.694774 
L 502.433386 321.24457 
L 505.336091 318.39535 
L 508.238795 320.876005 
L 511.1415 320.029512 
L 514.044205 315.420447 
L 516.946909 317.566699 
L 519.849614 318.338532 
L 522.752318 321.435617 
L 525.655023 322.797767 
L 528.557727 318.761527 
L 531.460432 322.094621 
L 534.363136 317.603327 
L 537.265841 320.349659 
L 540.168545 320.314054 
L 543.07125 318.816702 
L 548.876659 323.698606 
L 551.779364 320.103861 
L 554.682068 323.100237 
L 557.584773 319.593833 
L 560.487477 323.642353 
L 563.390182 323.866603 
L 566.292886 323.69359 
L 569.195591 326.081623 
L 572.098295 321.050148 
L 575.001 322.538551 
L 577.903705 320.437991 
L 580.806409 320.411907 
L 583.709114 323.800303 
L 586.611818 322.714681 
L 589.514523 321.153725 
L 595.319932 321.859865 
L 598.222636 322.875188 
L 601.125341 316.437588 
L 604.028045 317.595766 
L 606.93075 319.212357 
L 609.833455 316.74282 
L 612.736159 322.025894 
L 615.638864 323.713448 
L 618.541568 321.196972 
L 621.444273 323.826636 
L 624.346977 322.306019 
L 627.249682 324.520976 
L 630.152386 325.331954 
L 633.055091 325.255086 
L 635.957795 321.734654 
L 638.8605 323.746936 
L 641.763205 323.424467 
L 644.665909 323.742398 
L 647.568614 323.093336 
L 650.471318 324.625158 
L 653.374023 323.703045 
L 656.276727 321.274634 
L 659.179432 322.738103 
L 662.082136 324.464468 
L 664.984841 324.290309 
L 667.887545 326.986469 
L 670.79025 326.70541 
L 673.692955 326.283749 
L 673.692955 326.283749 
" clip-path="url(#pc2c2bc1345)" style="fill: none; stroke: #ff8c00; stroke-width: 3; stroke-linecap: square"/>
   </g>
   <g id="line2d_39">
    <path d="M 93.152045 36.300333 
L 98.957455 42.954966 
L 107.665568 52.482273 
L 116.373682 61.555415 
L 125.081795 70.241141 
L 133.789909 78.600907 
L 145.400727 89.316075 
L 157.011545 99.640787 
L 168.622364 109.648145 
L 183.135886 121.775994 
L 194.746705 131.28471 
L 215.065636 147.559636 
L 244.092682 170.362798 
L 264.411614 186.095982 
L 278.925136 197.128816 
L 293.438659 207.935351 
L 307.952182 218.349833 
L 316.660295 224.371101 
L 325.368409 230.177863 
L 334.076523 235.733911 
L 339.881932 239.275933 
L 348.590045 244.341923 
L 354.395455 247.557823 
L 363.103568 252.066614 
L 371.811682 256.22352 
L 380.519795 260.015513 
L 389.227909 263.445758 
L 397.936023 266.521258 
L 406.644136 269.254483 
L 415.35225 271.665795 
L 424.060364 273.777217 
L 432.768477 275.611314 
L 444.379295 277.654033 
L 453.087409 278.943696 
L 461.795523 280.041093 
L 470.503636 280.968219 
L 482.114455 281.983233 
L 493.725273 282.780905 
L 511.1415 283.641155 
L 531.460432 284.271673 
L 551.779364 284.640078 
L 575.001 284.842014 
L 606.93075 284.903012 
L 667.887545 284.74587 
L 673.692955 284.723348 
L 673.692955 284.723348 
" clip-path="url(#pc2c2bc1345)" style="fill: none; stroke: #32cd32; stroke-width: 3; stroke-linecap: square"/>
   </g>
   <g id="line2d_40">
    <path d="M 93.152045 36.153478 
L 96.05475 288.571793 
L 98.957455 290.453564 
L 101.860159 297.889471 
L 104.762864 290.333691 
L 107.665568 284.422281 
L 110.568273 299.36675 
L 113.470977 294.487544 
L 116.373682 293.628344 
L 119.276386 306.86176 
L 122.179091 295.166971 
L 125.081795 300.760129 
L 127.9845 310.596054 
L 130.887205 303.189211 
L 133.789909 300.149342 
L 136.692614 315.225015 
L 139.595318 302.958899 
L 142.498023 300.845909 
L 145.400727 318.929778 
L 148.303432 309.956278 
L 151.206136 308.621736 
L 154.108841 320.132853 
L 157.011545 309.59448 
L 159.91425 318.789663 
L 162.816955 323.175225 
L 165.719659 312.563309 
L 168.622364 319.716066 
L 171.525068 325.825738 
L 174.427773 290.824093 
L 177.330477 299.383547 
L 180.233182 309.86238 
L 183.135886 281.54181 
L 186.038591 313.383294 
L 188.941295 327.645656 
L 191.844 305.903907 
L 194.746705 316.091788 
L 197.649409 330.06132 
L 200.552114 330.013689 
L 203.454818 326.877606 
L 206.357523 314.020607 
L 209.260227 289.682532 
L 212.162932 322.793412 
L 215.065636 332.494981 
L 217.968341 314.904705 
L 220.871045 316.783805 
L 223.77375 317.921132 
L 226.676455 320.834854 
L 229.579159 312.54075 
L 232.481864 306.692375 
L 235.384568 319.833738 
L 238.287273 290.065364 
L 241.189977 324.185325 
L 244.092682 331.080047 
L 246.995386 323.384497 
L 249.898091 310.59384 
L 252.800795 329.41737 
L 255.7035 332.99351 
L 261.508909 315.724851 
L 264.411614 301.699151 
L 267.314318 309.0615 
L 270.217023 338.384908 
L 273.119727 316.349483 
L 276.022432 298.194739 
L 278.925136 330.527037 
L 281.827841 293.146686 
L 284.730545 315.340473 
L 287.63325 334.760832 
L 290.535955 329.099631 
L 293.438659 314.439095 
L 296.341364 334.442993 
L 299.244068 329.646338 
L 302.146773 323.047833 
L 305.049477 326.720304 
L 307.952182 328.466119 
L 310.854886 335.577182 
L 313.757591 333.430391 
L 316.660295 321.213924 
L 319.563 337.89841 
L 322.465705 338.75609 
L 325.368409 317.9554 
L 328.271114 332.399673 
L 331.173818 339.243534 
L 334.076523 336.245215 
L 336.979227 337.924107 
L 339.881932 343.888518 
L 342.784636 306.916272 
L 345.687341 316.609249 
L 348.590045 339.195214 
L 351.49275 333.152339 
L 354.395455 328.103499 
L 357.298159 341.083977 
L 360.200864 332.346269 
L 363.103568 330.63591 
L 366.006273 342.464724 
L 368.908977 335.769709 
L 371.811682 334.561372 
L 374.714386 322.835798 
L 377.617091 335.9327 
L 380.519795 336.728605 
L 383.4225 306.81999 
L 386.325205 335.639466 
L 389.227909 336.013007 
L 392.130614 332.664003 
L 395.033318 345.370267 
L 397.936023 336.231838 
L 400.838727 337.562917 
L 403.741432 331.60616 
L 406.644136 321.130301 
L 409.546841 314.251569 
L 412.449545 347.880439 
L 415.35225 331.247128 
L 418.254955 319.97485 
L 421.157659 344.92385 
L 424.060364 341.513099 
L 426.963068 336.115309 
L 429.865773 346.522532 
L 432.768477 324.734324 
L 435.671182 336.168328 
L 438.573886 343.975248 
L 441.476591 318.98415 
L 444.379295 344.365559 
L 447.282 346.057004 
L 450.184705 317.583215 
L 453.087409 341.999386 
L 455.990114 349.577862 
L 458.892818 322.336194 
L 461.795523 330.750714 
L 464.698227 345.740082 
L 467.600932 335.744857 
L 470.503636 338.900368 
L 473.406341 334.716078 
L 476.309045 337.826721 
L 479.21175 345.316735 
L 482.114455 342.806028 
L 485.017159 335.283356 
L 487.919864 346.414752 
L 490.822568 344.675174 
L 493.725273 336.392397 
L 496.627977 334.116843 
L 499.530682 350.425586 
L 502.433386 348.427072 
L 505.336091 326.736738 
L 508.238795 329.980806 
L 511.1415 348.653633 
L 514.044205 345.376848 
L 516.946909 333.654541 
L 519.849614 324.510204 
L 522.752318 344.753646 
L 525.655023 337.927748 
L 528.557727 348.015771 
L 531.460432 342.505989 
L 534.363136 331.859568 
L 537.265841 343.875906 
L 540.168545 349.421939 
L 543.07125 336.039725 
L 545.973955 348.132641 
L 548.876659 348.260294 
L 551.779364 349.770902 
L 554.682068 344.678106 
L 557.584773 349.846584 
L 560.487477 349.400846 
L 563.390182 354.411585 
L 566.292886 346.532642 
L 569.195591 342.959534 
L 572.098295 353.196632 
L 575.001 350.544856 
L 577.903705 334.752278 
L 580.806409 350.005898 
L 583.709114 349.112471 
L 586.611818 344.138135 
L 589.514523 350.539973 
L 592.417227 353.163186 
L 595.319932 341.158629 
L 598.222636 354.164227 
L 601.125341 333.6387 
L 604.028045 348.758863 
L 606.93075 354.644097 
L 609.833455 341.321687 
L 612.736159 349.001548 
L 615.638864 354.365489 
L 618.541568 340.561459 
L 621.444273 344.830711 
L 624.346977 353.1805 
L 627.249682 353.09217 
L 630.152386 340.060288 
L 633.055091 350.718054 
L 635.957795 338.50163 
L 638.8605 354.657394 
L 641.763205 352.256743 
L 644.665909 342.536983 
L 647.568614 346.846844 
L 650.471318 355.165846 
L 653.374023 338.566922 
L 656.276727 353.88683 
L 659.179432 349.555754 
L 662.082136 338.62175 
L 664.984841 348.832366 
L 667.887545 356.721594 
L 670.79025 347.189224 
L 673.692955 346.249034 
L 673.692955 346.249034 
" clip-path="url(#pc2c2bc1345)" style="fill: none; stroke: #800080; stroke-width: 3; stroke-linecap: square"/>
   </g>
   <g id="line2d_41">
    <path d="M 93.152045 36.261221 
L 96.05475 52.058989 
L 98.957455 66.476661 
L 101.860159 79.823753 
L 104.762864 92.321306 
L 107.665568 104.152373 
L 113.470977 126.331756 
L 119.276386 147.113951 
L 125.081795 166.962569 
L 130.887205 186.00418 
L 136.692614 204.029269 
L 139.595318 212.540335 
L 142.498023 220.629489 
L 145.400727 228.227008 
L 148.303432 235.265205 
L 151.206136 241.6838 
L 154.108841 247.45359 
L 157.011545 252.564845 
L 159.91425 257.023911 
L 162.816955 260.856401 
L 165.719659 264.109242 
L 168.622364 266.837988 
L 171.525068 269.101639 
L 174.427773 270.960335 
L 177.330477 272.46881 
L 180.233182 273.682048 
L 183.135886 274.648548 
L 186.038591 275.40883 
L 188.941295 275.999617 
L 194.746705 276.794026 
L 200.552114 277.223801 
L 206.357523 277.41966 
L 215.065636 277.459851 
L 229.579159 277.23397 
L 270.217023 276.481524 
L 302.146773 276.170884 
L 342.784636 276.011161 
L 415.35225 275.982204 
L 673.692955 276.115479 
L 673.692955 276.115479 
" clip-path="url(#pc2c2bc1345)" style="fill: none; stroke: #0000ff; stroke-width: 3; stroke-linecap: square"/>
   </g>
   <g id="line2d_42">
    <path d="M 93.152045 36.34491 
L 96.05475 278.613539 
L 98.957455 281.046446 
L 101.860159 281.414213 
L 104.762864 283.621486 
L 107.665568 284.766317 
L 110.568273 285.081521 
L 113.470977 283.680724 
L 116.373682 283.466991 
L 119.276386 285.046713 
L 122.179091 285.333428 
L 125.081795 285.405835 
L 127.9845 283.96311 
L 130.887205 284.006455 
L 133.789909 285.2315 
L 136.692614 285.557202 
L 139.595318 285.589319 
L 142.498023 284.009354 
L 151.206136 285.572635 
L 154.108841 285.583952 
L 157.011545 283.981132 
L 159.91425 285.0358 
L 162.816955 285.213982 
L 165.719659 285.641554 
L 168.622364 285.557946 
L 171.525068 284.259927 
L 174.427773 285.142521 
L 177.330477 285.295563 
L 180.233182 285.617981 
L 183.135886 285.66862 
L 186.038591 284.212305 
L 188.941295 285.270847 
L 191.844 285.417683 
L 194.746705 285.771611 
L 197.649409 285.16855 
L 200.552114 284.350579 
L 203.454818 285.351348 
L 209.260227 285.741269 
L 215.065636 284.288059 
L 217.968341 285.463521 
L 220.871045 285.555016 
L 223.77375 285.830139 
L 226.676455 284.970795 
L 229.579159 284.415243 
L 232.481864 285.564431 
L 235.384568 286.076765 
L 238.287273 285.897777 
L 241.189977 284.897278 
L 244.092682 284.458759 
L 246.995386 285.74158 
L 252.800795 285.982408 
L 255.7035 284.915372 
L 258.606205 284.60585 
L 261.508909 285.825978 
L 264.411614 286.007817 
L 267.314318 286.034308 
L 270.217023 284.822959 
L 273.119727 284.641747 
L 276.022432 285.935534 
L 278.925136 286.076738 
L 281.827841 286.10062 
L 284.730545 284.898154 
L 287.63325 285.052948 
L 290.535955 285.960973 
L 293.438659 286.153901 
L 296.341364 286.150718 
L 299.244068 284.892494 
L 302.146773 285.528519 
L 305.049477 285.967116 
L 307.952182 286.151582 
L 310.854886 286.205601 
L 313.757591 284.92371 
L 316.660295 285.645073 
L 319.563 286.001802 
L 325.368409 286.25419 
L 328.271114 284.914248 
L 331.173818 285.95302 
L 334.076523 286.081371 
L 336.979227 286.349408 
L 339.881932 285.97261 
L 342.784636 285.052051 
L 345.687341 286.01475 
L 351.49275 286.312085 
L 354.395455 285.793475 
L 357.298159 285.133394 
L 360.200864 286.199139 
L 363.103568 286.242168 
L 366.006273 286.474632 
L 368.908977 285.714408 
L 371.811682 285.217335 
L 374.714386 286.298016 
L 377.617091 286.447633 
L 380.519795 286.468795 
L 383.4225 285.634724 
L 386.325205 285.324571 
L 389.227909 286.382632 
L 392.130614 286.570483 
L 395.033318 286.518113 
L 397.936023 285.595314 
L 400.838727 285.308987 
L 403.741432 286.395377 
L 406.644136 286.591427 
L 409.546841 286.522131 
L 412.449545 285.662681 
L 415.35225 285.42828 
L 418.254955 286.4984 
L 424.060364 286.659579 
L 426.963068 285.726398 
L 429.865773 285.771699 
L 432.768477 286.518652 
L 435.671182 286.717818 
L 438.573886 286.638129 
L 441.476591 285.688537 
L 444.379295 286.086078 
L 447.282 286.647185 
L 453.087409 286.733496 
L 455.990114 285.796455 
L 458.892818 286.353235 
L 461.795523 286.701216 
L 467.600932 286.811528 
L 470.503636 285.835123 
L 473.406341 286.492618 
L 476.309045 286.798953 
L 479.21175 286.869608 
L 482.114455 286.656861 
L 485.017159 285.863345 
L 487.919864 286.651598 
L 490.822568 286.85231 
L 493.725273 286.909262 
L 496.627977 286.612552 
L 499.530682 285.942298 
L 502.433386 286.719367 
L 508.238795 286.969402 
L 514.044205 286.01973 
L 516.946909 286.807115 
L 519.849614 287.033253 
L 522.752318 287.047596 
L 525.655023 286.485803 
L 528.557727 286.042025 
L 531.460432 286.931068 
L 534.363136 287.056979 
L 537.265841 287.039242 
L 540.168545 286.445239 
L 543.07125 286.094455 
L 545.973955 286.991847 
L 548.876659 287.175777 
L 551.779364 287.181731 
L 554.682068 286.504144 
L 557.584773 286.187516 
L 560.487477 287.10255 
L 563.390182 287.227712 
L 566.292886 287.22965 
L 569.195591 286.534171 
L 572.098295 286.460367 
L 575.001 287.181443 
L 580.806409 287.312793 
L 583.709114 286.605364 
L 586.611818 286.697601 
L 589.514523 287.257822 
L 595.319932 287.396061 
L 598.222636 286.63112 
L 601.125341 286.936756 
L 604.028045 287.355017 
L 606.93075 287.489299 
L 609.833455 287.427471 
L 612.736159 286.734947 
L 618.541568 287.438755 
L 621.444273 287.545633 
L 624.346977 287.404232 
L 627.249682 286.749828 
L 630.152386 287.271786 
L 633.055091 287.542468 
L 635.957795 287.582075 
L 638.8605 287.382162 
L 641.763205 286.837225 
L 644.665909 287.387106 
L 647.568614 287.61451 
L 650.471318 287.665909 
L 653.374023 287.36593 
L 656.276727 286.930549 
L 659.179432 287.527965 
L 662.082136 287.736463 
L 664.984841 287.733944 
L 670.79025 287.002144 
L 673.692955 287.637256 
L 673.692955 287.637256 
" clip-path="url(#pc2c2bc1345)" style="fill: none; stroke: #ff0000; stroke-width: 2; stroke-linecap: square"/>
   </g>
   <g id="line2d_43">
    <path d="M 93.152045 36.355527 
L 96.05475 106.706341 
L 98.957455 164.845791 
L 101.860159 218.620932 
L 104.762864 258.39536 
L 107.665568 275.511434 
L 110.568273 279.599991 
L 113.470977 279.813823 
L 119.276386 278.93066 
L 122.179091 278.692099 
L 127.9845 278.556148 
L 136.692614 278.67797 
L 157.011545 279.026955 
L 287.63325 280.625503 
L 360.200864 281.279098 
L 458.892818 282.335971 
L 485.017159 282.632831 
L 673.692955 285.509772 
L 673.692955 285.509772 
" clip-path="url(#pc2c2bc1345)" style="fill: none; stroke: #008000; stroke-width: 2; stroke-linecap: square"/>
   </g>
   <g id="line2d_44">
    <path d="M 93.152045 36.377401 
L 96.05475 67.264425 
L 98.957455 94.213013 
L 101.860159 118.802128 
L 107.665568 164.928211 
L 113.470977 208.287069 
L 116.373682 227.915105 
L 119.276386 244.929037 
L 122.179091 258.083202 
L 125.081795 267.172234 
L 127.9845 273.144754 
L 130.887205 276.574634 
L 133.789909 278.250395 
L 136.692614 278.994928 
L 139.595318 279.25426 
L 142.498023 279.188655 
L 148.303432 278.769087 
L 154.108841 278.545012 
L 159.91425 277.983829 
L 168.622364 278.086051 
L 171.525068 277.829065 
L 174.427773 277.726475 
L 183.135886 278.059624 
L 186.038591 277.839823 
L 188.941295 277.800617 
L 194.746705 278.132708 
L 197.649409 278.152121 
L 200.552114 277.943273 
L 203.454818 277.960624 
L 209.260227 278.269892 
L 212.162932 278.269295 
L 215.065636 278.098392 
L 217.968341 278.141041 
L 223.77375 278.420224 
L 226.676455 278.402074 
L 229.579159 278.2351 
L 241.189977 278.520058 
L 244.092682 278.364574 
L 252.800795 278.690004 
L 261.508909 278.608514 
L 267.314318 278.811926 
L 273.119727 278.592165 
L 281.827841 278.923947 
L 287.63325 278.717228 
L 296.341364 279.043239 
L 302.146773 278.839254 
L 310.854886 279.157545 
L 316.660295 278.95682 
L 325.368409 279.258948 
L 328.271114 279.091686 
L 334.076523 279.151751 
L 339.881932 279.32735 
L 342.784636 279.176698 
L 348.590045 279.24272 
L 354.395455 279.397111 
L 357.298159 279.228564 
L 363.103568 279.322415 
L 366.006273 279.447485 
L 368.908977 279.457763 
L 371.811682 279.296118 
L 377.617091 279.426796 
L 380.519795 279.53128 
L 383.4225 279.50964 
L 386.325205 279.358445 
L 392.130614 279.491692 
L 395.033318 279.597663 
L 403.741432 279.480635 
L 409.546841 279.675926 
L 418.254955 279.545113 
L 424.060364 279.757917 
L 429.865773 279.532774 
L 438.573886 279.829698 
L 444.379295 279.596607 
L 453.087409 279.896693 
L 458.892818 279.677091 
L 467.600932 279.969945 
L 473.406341 279.73096 
L 482.114455 280.012808 
L 485.017159 279.83318 
L 487.919864 279.800617 
L 496.627977 280.046141 
L 499.530682 279.878037 
L 502.433386 279.853735 
L 511.1415 280.076427 
L 514.044205 279.91351 
L 519.849614 280.023567 
L 525.655023 280.113156 
L 528.557727 279.939325 
L 534.363136 280.086789 
L 537.265841 280.186425 
L 540.168545 280.140929 
L 543.07125 279.980021 
L 554.682068 280.17756 
L 557.584773 280.015796 
L 566.292886 280.316039 
L 572.098295 280.079868 
L 580.806409 280.373257 
L 586.611818 280.14078 
L 595.319932 280.432484 
L 601.125341 280.208435 
L 609.833455 280.485306 
L 612.736159 280.309639 
L 615.638864 280.266036 
L 624.346977 280.514976 
L 627.249682 280.347294 
L 633.055091 280.407231 
L 638.8605 280.539737 
L 641.763205 280.393057 
L 647.568614 280.466469 
L 653.374023 280.580726 
L 656.276727 280.427293 
L 662.082136 280.550511 
L 664.984841 280.645402 
L 667.887545 280.617255 
L 670.79025 280.4711 
L 673.692955 280.514789 
L 673.692955 280.514789 
" clip-path="url(#pc2c2bc1345)" style="fill: none; stroke: #000000; stroke-width: 2; stroke-linecap: square"/>
   </g>
   <g id="patch_3">
    <path d="M 64.125 372.75 
L 64.125 20.125073 
" style="fill: none; stroke: #000000; stroke-width: 0.8; stroke-linejoin: miter; stroke-linecap: square"/>
   </g>
   <g id="patch_4">
    <path d="M 702.72 372.75 
L 702.72 20.125073 
" style="fill: none; stroke: #000000; stroke-width: 0.8; stroke-linejoin: miter; stroke-linecap: square"/>
   </g>
   <g id="patch_5">
    <path d="M 64.125 372.75 
L 702.72 372.75 
" style="fill: none; stroke: #000000; stroke-width: 0.8; stroke-linejoin: miter; stroke-linecap: square"/>
   </g>
   <g id="patch_6">
    <path d="M 64.125 20.125073 
L 702.72 20.125073 
" style="fill: none; stroke: #000000; stroke-width: 0.8; stroke-linejoin: miter; stroke-linecap: square"/>
   </g>
   <g id="legend_1">
    <g id="patch_7">
     <path d="M 513.23 220.805073 
L 691.52 220.805073 
Q 694.72 220.805073 694.72 217.605073 
L 694.72 31.325073 
Q 694.72 28.125073 691.52 28.125073 
L 513.23 28.125073 
Q 510.03 28.125073 510.03 31.325073 
L 510.03 217.605073 
Q 510.03 220.805073 513.23 220.805073 
z
" style="fill: #ffffff; opacity: 0.8; stroke: #cccccc; stroke-linejoin: miter"/>
    </g>
    <g id="line2d_45">
     <path d="M 516.43 41.082573 
L 532.43 41.082573 
L 548.43 41.082573 
" style="fill: none; stroke-dasharray: 3,4.95; stroke-dashoffset: 0; stroke: #4b0082; stroke-width: 3"/>
    </g>
    <g id="text_21">
     <!-- Centralized -->
     <g transform="translate(561.23 46.682573) scale(0.16 -0.16)">
      <defs>
       <path id="DejaVuSans-65" d="M 3597 1894 
L 3597 1613 
L 953 1613 
Q 991 1019 1311 708 
Q 1631 397 2203 397 
Q 2534 397 2845 478 
Q 3156 559 3463 722 
L 3463 178 
Q 3153 47 2828 -22 
Q 2503 -91 2169 -91 
Q 1331 -91 842 396 
Q 353 884 353 1716 
Q 353 2575 817 3079 
Q 1281 3584 2069 3584 
Q 2775 3584 3186 3129 
Q 3597 2675 3597 1894 
z
M 3022 2063 
Q 3016 2534 2758 2815 
Q 2500 3097 2075 3097 
Q 1594 3097 1305 2825 
Q 1016 2553 972 2059 
L 3022 2063 
z
" transform="scale(0.015625)"/>
       <path id="DejaVuSans-72" d="M 2631 2963 
Q 2534 3019 2420 3045 
Q 2306 3072 2169 3072 
Q 1681 3072 1420 2755 
Q 1159 2438 1159 1844 
L 1159 0 
L 581 0 
L 581 3500 
L 1159 3500 
L 1159 2956 
Q 1341 3275 1631 3429 
Q 1922 3584 2338 3584 
Q 2397 3584 2469 3576 
Q 2541 3569 2628 3553 
L 2631 2963 
z
" transform="scale(0.015625)"/>
       <path id="DejaVuSans-7a" d="M 353 3500 
L 3084 3500 
L 3084 2975 
L 922 459 
L 3084 459 
L 3084 0 
L 275 0 
L 275 525 
L 2438 3041 
L 353 3041 
L 353 3500 
z
" transform="scale(0.015625)"/>
      </defs>
      <use xlink:href="#DejaVuSans-43"/>
      <use xlink:href="#DejaVuSans-65" x="69.824219"/>
      <use xlink:href="#DejaVuSans-6e" x="131.347656"/>
      <use xlink:href="#DejaVuSans-74" x="194.726562"/>
      <use xlink:href="#DejaVuSans-72" x="233.935547"/>
      <use xlink:href="#DejaVuSans-61" x="275.048828"/>
      <use xlink:href="#DejaVuSans-6c" x="336.328125"/>
      <use xlink:href="#DejaVuSans-69" x="364.111328"/>
      <use xlink:href="#DejaVuSans-7a" x="391.894531"/>
      <use xlink:href="#DejaVuSans-65" x="444.384766"/>
      <use xlink:href="#DejaVuSans-64" x="505.908203"/>
     </g>
    </g>
    <g id="line2d_46">
     <path d="M 516.43 64.567573 
L 532.43 64.567573 
L 548.43 64.567573 
" style="fill: none; stroke: #ff8c00; stroke-width: 3; stroke-linecap: square"/>
    </g>
    <g id="text_22">
     <!-- DiNNO(adam-5) -->
     <g transform="translate(561.23 70.167573) scale(0.16 -0.16)">
      <defs>
       <path id="DejaVuSans-44" d="M 1259 4147 
L 1259 519 
L 2022 519 
Q 2988 519 3436 956 
Q 3884 1394 3884 2338 
Q 3884 3275 3436 3711 
Q 2988 4147 2022 4147 
L 1259 4147 
z
M 628 4666 
L 1925 4666 
Q 3281 4666 3915 4102 
Q 4550 3538 4550 2338 
Q 4550 1131 3912 565 
Q 3275 0 1925 0 
L 628 0 
L 628 4666 
z
" transform="scale(0.015625)"/>
       <path id="DejaVuSans-4e" d="M 628 4666 
L 1478 4666 
L 3547 763 
L 3547 4666 
L 4159 4666 
L 4159 0 
L 3309 0 
L 1241 3903 
L 1241 0 
L 628 0 
L 628 4666 
z
" transform="scale(0.015625)"/>
       <path id="DejaVuSans-4f" d="M 2522 4238 
Q 1834 4238 1429 3725 
Q 1025 3213 1025 2328 
Q 1025 1447 1429 934 
Q 1834 422 2522 422 
Q 3209 422 3611 934 
Q 4013 1447 4013 2328 
Q 4013 3213 3611 3725 
Q 3209 4238 2522 4238 
z
M 2522 4750 
Q 3503 4750 4090 4092 
Q 4678 3434 4678 2328 
Q 4678 1225 4090 567 
Q 3503 -91 2522 -91 
Q 1538 -91 948 565 
Q 359 1222 359 2328 
Q 359 3434 948 4092 
Q 1538 4750 2522 4750 
z
" transform="scale(0.015625)"/>
       <path id="DejaVuSans-28" d="M 1984 4856 
Q 1566 4138 1362 3434 
Q 1159 2731 1159 2009 
Q 1159 1288 1364 580 
Q 1569 -128 1984 -844 
L 1484 -844 
Q 1016 -109 783 600 
Q 550 1309 550 2009 
Q 550 2706 781 3412 
Q 1013 4119 1484 4856 
L 1984 4856 
z
" transform="scale(0.015625)"/>
       <path id="DejaVuSans-2d" d="M 313 2009 
L 1997 2009 
L 1997 1497 
L 313 1497 
L 313 2009 
z
" transform="scale(0.015625)"/>
       <path id="DejaVuSans-29" d="M 513 4856 
L 1013 4856 
Q 1481 4119 1714 3412 
Q 1947 2706 1947 2009 
Q 1947 1309 1714 600 
Q 1481 -109 1013 -844 
L 513 -844 
Q 928 -128 1133 580 
Q 1338 1288 1338 2009 
Q 1338 2731 1133 3434 
Q 928 4138 513 4856 
z
" transform="scale(0.015625)"/>
      </defs>
      <use xlink:href="#DejaVuSans-44"/>
      <use xlink:href="#DejaVuSans-69" x="77.001953"/>
      <use xlink:href="#DejaVuSans-4e" x="104.785156"/>
      <use xlink:href="#DejaVuSans-4e" x="179.589844"/>
      <use xlink:href="#DejaVuSans-4f" x="254.394531"/>
      <use xlink:href="#DejaVuSans-28" x="333.105469"/>
      <use xlink:href="#DejaVuSans-61" x="372.119141"/>
      <use xlink:href="#DejaVuSans-64" x="433.398438"/>
      <use xlink:href="#DejaVuSans-61" x="496.875"/>
      <use xlink:href="#DejaVuSans-6d" x="558.154297"/>
      <use xlink:href="#DejaVuSans-2d" x="655.566406"/>
      <use xlink:href="#DejaVuSans-35" x="691.650391"/>
      <use xlink:href="#DejaVuSans-29" x="755.273438"/>
     </g>
    </g>
    <g id="line2d_47">
     <path d="M 516.43 88.052573 
L 532.43 88.052573 
L 548.43 88.052573 
" style="fill: none; stroke: #32cd32; stroke-width: 3; stroke-linecap: square"/>
    </g>
    <g id="text_23">
     <!-- DSGT -->
     <g transform="translate(561.23 93.652573) scale(0.16 -0.16)">
      <defs>
       <path id="DejaVuSans-53" d="M 3425 4513 
L 3425 3897 
Q 3066 4069 2747 4153 
Q 2428 4238 2131 4238 
Q 1616 4238 1336 4038 
Q 1056 3838 1056 3469 
Q 1056 3159 1242 3001 
Q 1428 2844 1947 2747 
L 2328 2669 
Q 3034 2534 3370 2195 
Q 3706 1856 3706 1288 
Q 3706 609 3251 259 
Q 2797 -91 1919 -91 
Q 1588 -91 1214 -16 
Q 841 59 441 206 
L 441 856 
Q 825 641 1194 531 
Q 1563 422 1919 422 
Q 2459 422 2753 634 
Q 3047 847 3047 1241 
Q 3047 1584 2836 1778 
Q 2625 1972 2144 2069 
L 1759 2144 
Q 1053 2284 737 2584 
Q 422 2884 422 3419 
Q 422 4038 858 4394 
Q 1294 4750 2059 4750 
Q 2388 4750 2728 4690 
Q 3069 4631 3425 4513 
z
" transform="scale(0.015625)"/>
       <path id="DejaVuSans-47" d="M 3809 666 
L 3809 1919 
L 2778 1919 
L 2778 2438 
L 4434 2438 
L 4434 434 
Q 4069 175 3628 42 
Q 3188 -91 2688 -91 
Q 1594 -91 976 548 
Q 359 1188 359 2328 
Q 359 3472 976 4111 
Q 1594 4750 2688 4750 
Q 3144 4750 3555 4637 
Q 3966 4525 4313 4306 
L 4313 3634 
Q 3963 3931 3569 4081 
Q 3175 4231 2741 4231 
Q 1884 4231 1454 3753 
Q 1025 3275 1025 2328 
Q 1025 1384 1454 906 
Q 1884 428 2741 428 
Q 3075 428 3337 486 
Q 3600 544 3809 666 
z
" transform="scale(0.015625)"/>
       <path id="DejaVuSans-54" d="M -19 4666 
L 3928 4666 
L 3928 4134 
L 2272 4134 
L 2272 0 
L 1638 0 
L 1638 4134 
L -19 4134 
L -19 4666 
z
" transform="scale(0.015625)"/>
      </defs>
      <use xlink:href="#DejaVuSans-44"/>
      <use xlink:href="#DejaVuSans-53" x="77.001953"/>
      <use xlink:href="#DejaVuSans-47" x="140.478516"/>
      <use xlink:href="#DejaVuSans-54" x="214.34375"/>
     </g>
    </g>
    <g id="line2d_48">
     <path d="M 516.43 111.537573 
L 532.43 111.537573 
L 548.43 111.537573 
" style="fill: none; stroke: #800080; stroke-width: 3; stroke-linecap: square"/>
    </g>
    <g id="text_24">
     <!-- SONATA -->
     <g transform="translate(561.23 117.137573) scale(0.16 -0.16)">
      <defs>
       <path id="DejaVuSans-41" d="M 2188 4044 
L 1331 1722 
L 3047 1722 
L 2188 4044 
z
M 1831 4666 
L 2547 4666 
L 4325 0 
L 3669 0 
L 3244 1197 
L 1141 1197 
L 716 0 
L 50 0 
L 1831 4666 
z
" transform="scale(0.015625)"/>
      </defs>
      <use xlink:href="#DejaVuSans-53"/>
      <use xlink:href="#DejaVuSans-4f" x="63.476562"/>
      <use xlink:href="#DejaVuSans-4e" x="142.1875"/>
      <use xlink:href="#DejaVuSans-41" x="216.992188"/>
      <use xlink:href="#DejaVuSans-54" x="277.650391"/>
      <use xlink:href="#DejaVuSans-41" x="330.984375"/>
     </g>
    </g>
    <g id="line2d_49">
     <path d="M 516.43 135.022573 
L 532.43 135.022573 
L 548.43 135.022573 
" style="fill: none; stroke: #0000ff; stroke-width: 3; stroke-linecap: square"/>
    </g>
    <g id="text_25">
     <!-- DiNNO(sgd-5) -->
     <g transform="translate(561.23 140.622573) scale(0.16 -0.16)">
      <defs>
       <path id="DejaVuSans-67" d="M 2906 1791 
Q 2906 2416 2648 2759 
Q 2391 3103 1925 3103 
Q 1463 3103 1205 2759 
Q 947 2416 947 1791 
Q 947 1169 1205 825 
Q 1463 481 1925 481 
Q 2391 481 2648 825 
Q 2906 1169 2906 1791 
z
M 3481 434 
Q 3481 -459 3084 -895 
Q 2688 -1331 1869 -1331 
Q 1566 -1331 1297 -1286 
Q 1028 -1241 775 -1147 
L 775 -588 
Q 1028 -725 1275 -790 
Q 1522 -856 1778 -856 
Q 2344 -856 2625 -561 
Q 2906 -266 2906 331 
L 2906 616 
Q 2728 306 2450 153 
Q 2172 0 1784 0 
Q 1141 0 747 490 
Q 353 981 353 1791 
Q 353 2603 747 3093 
Q 1141 3584 1784 3584 
Q 2172 3584 2450 3431 
Q 2728 3278 2906 2969 
L 2906 3500 
L 3481 3500 
L 3481 434 
z
" transform="scale(0.015625)"/>
      </defs>
      <use xlink:href="#DejaVuSans-44"/>
      <use xlink:href="#DejaVuSans-69" x="77.001953"/>
      <use xlink:href="#DejaVuSans-4e" x="104.785156"/>
      <use xlink:href="#DejaVuSans-4e" x="179.589844"/>
      <use xlink:href="#DejaVuSans-4f" x="254.394531"/>
      <use xlink:href="#DejaVuSans-28" x="333.105469"/>
      <use xlink:href="#DejaVuSans-73" x="372.119141"/>
      <use xlink:href="#DejaVuSans-67" x="424.21875"/>
      <use xlink:href="#DejaVuSans-64" x="487.695312"/>
      <use xlink:href="#DejaVuSans-2d" x="551.171875"/>
      <use xlink:href="#DejaVuSans-35" x="587.255859"/>
      <use xlink:href="#DejaVuSans-29" x="650.878906"/>
     </g>
    </g>
    <g id="line2d_50">
     <path d="M 516.43 158.507573 
L 532.43 158.507573 
L 548.43 158.507573 
" style="fill: none; stroke: #ff0000; stroke-width: 2; stroke-linecap: square"/>
    </g>
    <g id="text_26">
     <!-- Dinno(adam-1) -->
     <g transform="translate(561.23 164.107573) scale(0.16 -0.16)">
      <use xlink:href="#DejaVuSans-44"/>
      <use xlink:href="#DejaVuSans-69" x="77.001953"/>
      <use xlink:href="#DejaVuSans-6e" x="104.785156"/>
      <use xlink:href="#DejaVuSans-6e" x="168.164062"/>
      <use xlink:href="#DejaVuSans-6f" x="231.542969"/>
      <use xlink:href="#DejaVuSans-28" x="292.724609"/>
      <use xlink:href="#DejaVuSans-61" x="331.738281"/>
      <use xlink:href="#DejaVuSans-64" x="393.017578"/>
      <use xlink:href="#DejaVuSans-61" x="456.494141"/>
      <use xlink:href="#DejaVuSans-6d" x="517.773438"/>
      <use xlink:href="#DejaVuSans-2d" x="615.185547"/>
      <use xlink:href="#DejaVuSans-31" x="651.269531"/>
      <use xlink:href="#DejaVuSans-29" x="714.892578"/>
     </g>
    </g>
    <g id="line2d_51">
     <path d="M 516.43 181.992573 
L 532.43 181.992573 
L 548.43 181.992573 
" style="fill: none; stroke: #008000; stroke-width: 2; stroke-linecap: square"/>
    </g>
    <g id="text_27">
     <!-- K-GT(adam-5) -->
     <g transform="translate(561.23 187.592573) scale(0.16 -0.16)">
      <defs>
       <path id="DejaVuSans-4b" d="M 628 4666 
L 1259 4666 
L 1259 2694 
L 3353 4666 
L 4166 4666 
L 1850 2491 
L 4331 0 
L 3500 0 
L 1259 2247 
L 1259 0 
L 628 0 
L 628 4666 
z
" transform="scale(0.015625)"/>
      </defs>
      <use xlink:href="#DejaVuSans-4b"/>
      <use xlink:href="#DejaVuSans-2d" x="55.076172"/>
      <use xlink:href="#DejaVuSans-47" x="94.785156"/>
      <use xlink:href="#DejaVuSans-54" x="168.650391"/>
      <use xlink:href="#DejaVuSans-28" x="229.734375"/>
      <use xlink:href="#DejaVuSans-61" x="268.748047"/>
      <use xlink:href="#DejaVuSans-64" x="330.027344"/>
      <use xlink:href="#DejaVuSans-61" x="393.503906"/>
      <use xlink:href="#DejaVuSans-6d" x="454.783203"/>
      <use xlink:href="#DejaVuSans-2d" x="552.195312"/>
      <use xlink:href="#DejaVuSans-35" x="588.279297"/>
      <use xlink:href="#DejaVuSans-29" x="651.902344"/>
     </g>
    </g>
    <g id="line2d_52">
     <path d="M 516.43 205.477573 
L 532.43 205.477573 
L 548.43 205.477573 
" style="fill: none; stroke: #000000; stroke-width: 2; stroke-linecap: square"/>
    </g>
    <g id="text_28">
     <!-- RANDCOM -->
     <g transform="translate(561.23 211.077573) scale(0.16 -0.16)">
      <defs>
       <path id="DejaVuSans-4d" d="M 628 4666 
L 1569 4666 
L 2759 1491 
L 3956 4666 
L 4897 4666 
L 4897 0 
L 4281 0 
L 4281 4097 
L 3078 897 
L 2444 897 
L 1241 4097 
L 1241 0 
L 628 0 
L 628 4666 
z
" transform="scale(0.015625)"/>
      </defs>
      <use xlink:href="#DejaVuSans-52"/>
      <use xlink:href="#DejaVuSans-41" x="65.482422"/>
      <use xlink:href="#DejaVuSans-4e" x="133.890625"/>
      <use xlink:href="#DejaVuSans-44" x="208.695312"/>
      <use xlink:href="#DejaVuSans-43" x="285.697266"/>
      <use xlink:href="#DejaVuSans-4f" x="355.521484"/>
      <use xlink:href="#DejaVuSans-4d" x="434.232422"/>
     </g>
    </g>
   </g>
  </g>
 </g>
 <defs>
  <clipPath id="pc2c2bc1345">
   <rect x="64.125" y="20.125073" width="638.595" height="352.624927"/>
  </clipPath>
 </defs>
</svg>
